<?xml version="1.0" encoding="utf-8"?>
<!-- Generator: Adobe Illustrator 23.0.5, SVG Export Plug-In . SVG Version: 6.00 Build 0)  -->
<svg version="1.1" id="Capa_1" xmlns="http://www.w3.org/2000/svg" xmlns:xlink="http://www.w3.org/1999/xlink" x="0px" y="0px"
	 viewBox="0 0 50 50" style="enable-background:new 0 0 50 50;" xml:space="preserve">
<style type="text/css">
	.st0{fill:#830000;}
	.st1{fill:#FFFFFF;}
</style>
<g>
	<path class="st0" d="M49.5,24.7c0,12.8-9.9,23.4-22.4,24.4c-0.7,0.1-1.4,0.1-2.1,0.1c-1.8,0-3.6-0.2-5.3-0.6
		c-11-2.5-19.2-12.3-19.2-24c0-13.5,11-24.5,24.5-24.5C38.6,0.3,49.5,11.2,49.5,24.7z"/>
	<g>
		<path class="st1" d="M27.9,19.5c0.4-0.5,1.2-0.8,2.3-0.8c1,0,2.3,0.1,3.4,0.5l1-5.2c-2-0.7-4.1-0.9-6.2-0.9s-3.8,0.3-5.2,1.1
			c-1.4,0.8-2.3,1.6-2.8,2.9c-0.5,1.1-0.8,3-0.8,5.3v2.1h-4.1v6h4.1v18.8c1.7,0.4,3.5,0.6,5.4,0.6c0.7,0,1.4,0,2.1-0.1V30.3h5.5v-6
			h-5.5v-1.9C27.2,20.9,27.4,20,27.9,19.5z"/>
	</g>
</g>
</svg>
