<?xml version="1.0" encoding="utf-8"?>
<!-- Generator: Adobe Illustrator 23.0.5, SVG Export Plug-In . SVG Version: 6.00 Build 0)  -->
<svg version="1.1" id="Capa_1" xmlns="http://www.w3.org/2000/svg" xmlns:xlink="http://www.w3.org/1999/xlink" x="0px" y="0px"
	 viewBox="0 0 50 50" style="enable-background:new 0 0 50 50;" xml:space="preserve">
<style type="text/css">
	.st0{fill:#830000;}
	.st1{fill-rule:evenodd;clip-rule:evenodd;fill:#FFFFFF;}
</style>
<g>
	<path class="st0" d="M49.5,25c0,13.5-11,24.5-24.5,24.5S0.5,38.5,0.5,25S11.5,0.5,25,0.5S49.5,11.5,49.5,25z"/>
	<g>
		<path class="st1" d="M34.7,11.8c-6.5,0-13,0-19.5,0c-2.3,0-3.5,1.2-3.5,3.5c0,3.2,0,6.4,0,9.7c0,3.2,0,6.5,0,9.7
			c0,2.2,1.2,3.5,3.4,3.5c6.6,0,13.1,0,19.6,0c2.3,0,3.5-1.2,3.5-3.5c0-6.5,0-13,0-19.5C38.2,13,37,11.8,34.7,11.8z M32.6,14.8
			c2.6,0,2.6,0,2.6,2.6s0,2.6-2.6,2.6S30,20,30,17.4S30,14.8,32.6,14.8z M25,19.9c2.8,0,5.1,2.4,5.1,5.1c0,2.8-2.4,5.2-5.2,5.1
			s-5.1-2.4-5.1-5.2C19.9,22.2,22.3,19.9,25,19.9z M35.2,33.6c0,1.2-0.3,1.6-1.6,1.6c-2.9,0-5.8,0-8.7,0s-5.8,0-8.6,0
			c-1.2,0-1.6-0.4-1.6-1.6c0-3.2,0-6.4,0-9.6c0-0.9,0.3-1.1,1.1-1.1c1.2,0.1,1.2,0,1.1,1.2c-0.5,4.1,2.4,8.1,6.4,8.8
			c4.2,0.8,8.3-1.7,9.5-5.7c0.3-1.2,0.4-2.6,0.2-3.8C32.9,23,33,23,33.4,23c1.8-0.1,1.8-0.2,1.8,1.7C35.2,27.6,35.2,30.6,35.2,33.6z
			"/>
	</g>
</g>
</svg>
