<svg id="Capa_1" data-name="Capa 1" xmlns="http://www.w3.org/2000/svg" viewBox="0 0 790.42 544.17"><defs><style>.cls-1{fill:#fbb03b;stroke:#fbb03b;}.cls-1,.cls-4{stroke-miterlimit:10;}.cls-2,.cls-4{fill:#00426c;}.cls-3{fill:#830000;}.cls-4{stroke:#00426c;}</style></defs><title>logo</title><path class="cls-1" d="M588.57,97.65A178.06,178.06,0,0,1,626,207.11c0,43.32-15.67,83.21-42,115C613.4,289.61,631.07,248,631.07,202.5c0-42.22-15.25-81.19-41-112.53" transform="translate(-11.49 14.5)"/><path class="cls-1" d="M563,63a212.22,212.22,0,0,0-99.3-44.81L441.29,15.5q-7.5-.5-15.13-.5c-67.83,0-132.35,34.81-169.65,81.27l7.3,4.66c36.13-44.32,99-79.29,164.07-79.37l.47,0c24-.25,38.58,3.45,38.58,3.45a201.85,201.85,0,0,1,90.16,40.65" transform="translate(-11.49 14.5)"/><path class="cls-1" d="M230.63,145.71c-5,16.24-9.39,39.08-9.39,56.79,0,45.08,17.39,86.44,46.36,118.78-25.91-31.62-38.25-72.43-38.25-115.39,0-16.86,3.85-39.35,8.25-54.75" transform="translate(-11.49 14.5)"/><path class="cls-2" d="M227.52-11.5a1.5,1.5,0,0,0,0-3,1.5,1.5,0,0,0,0,3Z" transform="translate(-11.49 14.5)"/><path class="cls-3" d="M308.76,212.55a30.27,30.27,0,0,1-8.71-6.31,51.34,51.34,0,0,1-5.71-7.37c.26-.19.49-.39.75-.56a24,24,0,0,1,5.36-2.6c1.95-.71,4.08-1.15,6.42-1.75a13.84,13.84,0,0,0-14.12.78,15,15,0,0,0-5,5.48,12.87,12.87,0,0,0-1.66,7,45.52,45.52,0,0,1,7.52-7.78,25,25,0,0,0,3.85,8.94,24.15,24.15,0,0,0,9.46,8.05A27.11,27.11,0,0,0,319,219a26.65,26.65,0,0,0,11.7-2.67,69.54,69.54,0,0,1-11.48-.64A37,37,0,0,1,308.76,212.55Z" transform="translate(-11.49 14.5)"/><path class="cls-3" d="M349.48,129.63c4-.76,6.61-5.27,5.71-10.08s-4.92-8.08-9-7.33-6.6,5.28-5.71,10.08S345.42,130.39,349.48,129.63Z" transform="translate(-11.49 14.5)"/><path class="cls-3" d="M326.67,160.92c-3.26,2.28-3,8.29.6,13.43s9.14,7.45,12.41,5.17,3-8.3-.6-13.44S329.94,158.64,326.67,160.92Z" transform="translate(-11.49 14.5)"/><path class="cls-3" d="M353.7,150.19c-3.94.57-6.4,6.07-5.48,12.27s4.83,10.76,8.77,10.19,6.4-6.08,5.48-12.28S357.64,149.61,353.7,150.19Z" transform="translate(-11.49 14.5)"/><path class="cls-3" d="M303.82,140.54c1.5-.79,3.19-1.4,5.13-2.18-3.63-2-8.59-1.26-11.92,1.55a13,13,0,0,0-3.72,5.06,11.08,11.08,0,0,0-.8,6c2.63-3.12,4.72-5.76,7.24-7.8A22.18,22.18,0,0,1,303.82,140.54Z" transform="translate(-11.49 14.5)"/><path class="cls-3" d="M218.2,136.77l-.08-.07-.12-.1Z" transform="translate(-11.49 14.5)"/><path class="cls-3" d="M345.4,134.66a34,34,0,0,0-12.33,3,39.45,39.45,0,0,0-17.78,16.92c-4,7.07-5.66,15.76-3,24a25.6,25.6,0,0,0,6.85,10.83,29.85,29.85,0,0,0,11.23,6.44,37.29,37.29,0,0,0,25.38-1.1,38.08,38.08,0,0,0,10.88-6.8,30.37,30.37,0,0,0-21.21-53.23Zm21.8,10.21a20,20,0,0,1,7.13,9,20.19,20.19,0,0,1,.93,11.42,25.55,25.55,0,0,1-4.74,10.18,40,40,0,0,1-17.32,12.85A35.09,35.09,0,0,1,332.05,190c-6.89-1.79-13.23-6.11-16.52-12.76a20.82,20.82,0,0,1-2.06-10.87,24,24,0,0,1,3.62-10.75c4.09-6.59,11-10.72,18-13a46.76,46.76,0,0,1,10.72-2.26,40.57,40.57,0,0,1,11,.38A25.71,25.71,0,0,1,367.2,144.87Z" transform="translate(-11.49 14.5)"/><path class="cls-3" d="M367.2,34.83c.57-.73,1.15-1.44,1.65-2.22-.6.75-1.27,1.44-1.93,2.13h0a37.54,37.54,0,0,0-4.19,3.88c-2,1.58-4,3-6.11,4.41-2.26,1.46-4.55,2.82-6.93,4.07a35.28,35.28,0,0,0-6.91,4.85,33.61,33.61,0,0,0-9.31,14.32,41.59,41.59,0,0,0-2.1,14.89,52.81,52.81,0,0,0-23.77-.59,59.7,59.7,0,0,0-11.74,3.83,68.55,68.55,0,0,0-20,14.06,77.78,77.78,0,0,0-9.71,12,8.72,8.72,0,0,0-.44-4.64,15.3,15.3,0,0,0-6.05-6.92,35.68,35.68,0,0,0-8.06-4,52.9,52.9,0,0,0-8.46-2.25,12.69,12.69,0,0,0-2.81-.57c-.92-.1-1.82-.17-2.71-.22-1.77-.11-3.53-.18-5.29-.23-3.52,0-7,0-10.51.13s-7,.34-10.48.61-7,.64-10.45,1.19a21.57,21.57,0,0,1,3.52.76l-3.66-.7L202,98.48c1.59,6.25,2.6,13,4.47,19.83a37.09,37.09,0,0,0,4.3,10.07,34,34,0,0,0,3.27,4.46,25,25,0,0,0,4.06,3.86c5,4.19,9.95,8.19,15,12.17l7.74,5.92q3.59,2.67,7.25,5.26c.15.68.31,1.38.44,2.07a126.18,126.18,0,0,1,1.77,15c.16,2.53.27,5.06.35,7.58l.07,3.79a23.33,23.33,0,0,0,.21,4.1,74.84,74.84,0,0,0,4.8,15c.52,1.2,1,2.37,1.62,3.58a23.3,23.3,0,0,0,2.18,3.6,34,34,0,0,0,5.6,5.88,67.26,67.26,0,0,0,13.31,8.38,119.46,119.46,0,0,0,16,6.31l3.22-.66a181.59,181.59,0,0,1-17.62-8.59,73,73,0,0,1-12.23-8.49,33.43,33.43,0,0,1-4.86-5.27,19.16,19.16,0,0,1-1.76-3c-.5-1.1-1-2.28-1.49-3.43A74.72,74.72,0,0,1,255,192a19.21,19.21,0,0,1-.32-3.53l-.22-3.87q-.25-3.88-.77-7.71a96.52,96.52,0,0,0-3-15.22,48.2,48.2,0,0,0-2.8-7.28,18.67,18.67,0,0,0-4.58-6.24,20.49,20.49,0,0,1,3.49,6.69c.06.16.09.31.14.45l-.15-.1a.53.53,0,0,1,0,.12l.14,0c.47,1.46.85,2.94,1.18,4.43q-2.92-3.23-5.92-6.37l-6.8-7-6.89-6.86L221.74,133l-.41-.38a29.18,29.18,0,0,1-5.56-7.17,36.39,36.39,0,0,1-3.31-8.74c-1.27-4.79-2-9.83-3.14-15,3.58.81,7.21,1.8,10.74,2.84,2.57.79,5.11,1.66,7.6,2.63s5,2,7.4,3.1a67.31,67.31,0,0,1,13.6,8.35A38.24,38.24,0,0,1,258.92,131a33.31,33.31,0,0,0-8.27-14.52,58.16,58.16,0,0,0-13.38-10.41A89.87,89.87,0,0,0,221.92,99a102.69,102.69,0,0,0-13.83-3.92c.32,0,.59.1,1,.14,3.47.24,9.26-.25,12.73-.07l10.38.57c1.72.08,3.44.18,5.14.32.84.07,1.68.15,2.49.26a16.34,16.34,0,0,1,2,.34l.31.12.21,0a66.69,66.69,0,0,1,8,1.87,43.09,43.09,0,0,1,7.63,3,14.62,14.62,0,0,1,5.91,5,8.43,8.43,0,0,1,1.08,5.6,63.08,63.08,0,0,0-3.16,5.76,122.3,122.3,0,0,1,16.35-17.12A82.24,82.24,0,0,1,297.6,88.28a60.54,60.54,0,0,1,22.28-5.44,66,66,0,0,1,11.65.51c0,.08,0,.16,0,.24l.69-.13a91.62,91.62,0,0,1,10.95,2.23,55.33,55.33,0,0,0-6.87-3l1.53-.29a33,33,0,0,1-.68-7.31,35.76,35.76,0,0,1,.9-7.5A29.66,29.66,0,0,1,345,54.22a31.91,31.91,0,0,1,5.9-5.07c2.28-1.5,4.49-3.13,6.63-4.83.52-.42,1-.86,1.54-1.3-.92,1.31-1.8,2.63-2.59,4-2.72,4.74-4,10.15-4.93,15.46a61.22,61.22,0,0,0-.49,16.1,52.28,52.28,0,0,0,4,15.41l.4-.17a55,55,0,0,1-2.27-15.38,58.39,58.39,0,0,1,1.72-15.27c1.2-5,3.41-9.57,5.39-14.24s4.49-9.17,6.92-14l-.09-.08,0-.06c1.25,2.32,10.87,20.55,12.93,31.8.07.46.23,1.53.38,3.11a11,11,0,0,1-.08,2c0,2.19-.17,4.4-.31,6.62-.73,8.81-2.07,17.69-3.08,26.7l-.25-.39a20.69,20.69,0,0,1-2.81-7,18.9,18.9,0,0,0,1.75,7.54,49.31,49.31,0,0,0,3.71,6.86A96.81,96.81,0,0,0,389,124.33c1.72,1.93,3.5,3.8,5.36,5.6l2.79,2.69a20.25,20.25,0,0,1,2.48,2.54,75.23,75.23,0,0,1,7.59,12.74c.56,1.11,1.12,2.26,1.63,3.36a18.4,18.4,0,0,1,1.11,3.26,33.44,33.44,0,0,1,.84,7.13,73.32,73.32,0,0,1-1.49,14.81,197.58,197.58,0,0,1-6.65,24.21l.06,0c-.54,1.61-1.07,3.22-1.64,4.83,1-1.77,1.92-3.58,2.82-5.4h0v0c0-.09.1-.18.15-.27h0a118.59,118.59,0,0,0,8.51-22.59,66.53,66.53,0,0,0,2.29-15.56,33.26,33.26,0,0,0-.82-8.08,23.62,23.62,0,0,0-1.3-4c-.54-1.23-1.11-2.39-1.67-3.56a73.57,73.57,0,0,0-8.31-13.42,23,23,0,0,0-3-2.84l-2.83-2.52c-1.86-1.71-3.72-3.43-5.54-5.19a127,127,0,0,1-10.26-11.13,51.81,51.81,0,0,1-4.06-5.71,105.62,105.62,0,0,0,4.25-12.85,106.86,106.86,0,0,0,2.73-13.5,57.3,57.3,0,0,0,.55-7,24,24,0,0,0-.7-7.39S383.5,58.84,367.2,34.83Z" transform="translate(-11.49 14.5)"/><path class="cls-3" d="M402.58,348.6a30.18,30.18,0,0,1-8.72-6.31,50.59,50.59,0,0,1-5.7-7.37c.25-.19.48-.39.74-.56a24,24,0,0,1,5.36-2.6c1.95-.71,4.08-1.15,6.42-1.75a13.87,13.87,0,0,0-14.12.78,15.17,15.17,0,0,0-5,5.48,13.05,13.05,0,0,0-1.66,7,45.9,45.9,0,0,1,7.52-7.78,24.81,24.81,0,0,0,3.86,8.94,24.23,24.23,0,0,0,9.45,8.06A27.27,27.27,0,0,0,412.8,355a26.72,26.72,0,0,0,11.71-2.67,68.59,68.59,0,0,1-11.49-.64A36.92,36.92,0,0,1,402.58,348.6Z" transform="translate(-11.49 14.5)"/><path class="cls-3" d="M443.3,265.68c4.05-.76,6.61-5.27,5.7-10.08s-4.92-8.08-9-7.32-6.61,5.27-5.71,10.07S439.24,266.44,443.3,265.68Z" transform="translate(-11.49 14.5)"/><path class="cls-3" d="M420.48,297c-3.26,2.28-3,8.29.6,13.43s9.14,7.45,12.41,5.17,3-8.3-.6-13.44S423.75,294.69,420.48,297Z" transform="translate(-11.49 14.5)"/><path class="cls-3" d="M447.52,286.24c-3.94.57-6.4,6.07-5.49,12.27s4.83,10.76,8.77,10.19,6.4-6.08,5.49-12.28S451.45,285.66,447.52,286.24Z" transform="translate(-11.49 14.5)"/><path class="cls-3" d="M397.63,276.59c1.51-.79,3.19-1.4,5.13-2.18-3.63-2-8.59-1.26-11.92,1.55a13.07,13.07,0,0,0-3.72,5.06,11,11,0,0,0-.79,6,57.6,57.6,0,0,1,7.23-7.8A22.18,22.18,0,0,1,397.63,276.59Z" transform="translate(-11.49 14.5)"/><path class="cls-3" d="M312,272.82s0-.05-.07-.07l-.13-.1Z" transform="translate(-11.49 14.5)"/><path class="cls-3" d="M439.21,270.71a33.9,33.9,0,0,0-12.32,3,39.4,39.4,0,0,0-17.78,16.92c-4,7.07-5.67,15.76-3,24a25.64,25.64,0,0,0,6.85,10.83,29.85,29.85,0,0,0,11.23,6.44,37.28,37.28,0,0,0,25.38-1.1,38.08,38.08,0,0,0,10.88-6.8,30.37,30.37,0,0,0-21.21-53.23ZM461,280.92a19.93,19.93,0,0,1,7.12,9,20.22,20.22,0,0,1,.94,11.43,25.53,25.53,0,0,1-4.75,10.17A40,40,0,0,1,447,324.39,35.09,35.09,0,0,1,425.86,326c-6.88-1.79-13.23-6.11-16.51-12.76a20.73,20.73,0,0,1-2.07-10.87,24.09,24.09,0,0,1,3.62-10.75c4.09-6.59,11-10.72,18-13a46.87,46.87,0,0,1,10.72-2.26,41,41,0,0,1,11,.38A25.81,25.81,0,0,1,461,280.92Z" transform="translate(-11.49 14.5)"/><path class="cls-3" d="M340.54,290.85c.06.16.09.31.14.45l-.15-.1s0,.08,0,.12l.13.05c.47,1.46.85,2.94,1.19,4.43q-2.94-3.23-5.93-6.37l-6.8-7-6.88-6.86L315.56,269l-.42-.38a30.64,30.64,0,0,1-3-3.29,29.56,29.56,0,0,1-2.56-3.88,36.81,36.81,0,0,1-3.31-8.74c-1.27-4.79-2-9.83-3.14-15,3.59.81,7.21,1.8,10.75,2.84,2.56.79,5.1,1.66,7.6,2.63s5,2,7.39,3.1a67.48,67.48,0,0,1,13.6,8.35,38.11,38.11,0,0,1,10.26,12.4,33.19,33.19,0,0,0-8.26-14.52,58.43,58.43,0,0,0-13.39-10.41,89.52,89.52,0,0,0-15.35-7.07,102.69,102.69,0,0,0-13.83-3.92c.33,0,.6.1,1,.14,3.48.24,9.26-.24,12.73-.07l10.38.57c1.72.08,3.44.18,5.14.32.85.07,1.69.15,2.5.26a17.12,17.12,0,0,1,2,.34l.3.12.21,0a70.88,70.88,0,0,1,8,1.87,43.46,43.46,0,0,1,7.62,3,14.56,14.56,0,0,1,5.91,5,8.43,8.43,0,0,1,1.09,5.6,60.75,60.75,0,0,0-3.16,5.76A121.67,121.67,0,0,1,372,236.94a82.24,82.24,0,0,1,19.46-12.61,60.59,60.59,0,0,1,22.28-5.44,66.89,66.89,0,0,1,11.65.51c0,.09,0,.16,0,.24l.69-.13a93.8,93.8,0,0,1,11,2.23,55.46,55.46,0,0,0-6.88-3l1.53-.29a32.38,32.38,0,0,1-.67-7.31,35.1,35.1,0,0,1,.89-7.5,29.66,29.66,0,0,1,6.94-13.37,32.57,32.57,0,0,1,5.9-5.07c2.28-1.5,4.5-3.13,6.63-4.83.52-.42,1-.86,1.54-1.29-.92,1.3-1.8,2.62-2.59,4-2.71,4.74-4,10.15-4.93,15.46a61.22,61.22,0,0,0-.49,16.1,52.9,52.9,0,0,0,4,15.41l.4-.17A55,55,0,0,1,447,214.52a58.41,58.41,0,0,1,1.72-15.28c1.21-5,3.42-9.57,5.4-14.23s4.48-9.18,6.92-14L461,171s0-.05.05-.06c1.24,2.33,10.87,20.55,12.92,31.8.07.46.23,1.53.38,3.11a12.22,12.22,0,0,1-.07,2c0,2.18-.18,4.39-.32,6.61-.73,8.81-2.07,17.69-3.07,26.7-.08-.13-.18-.26-.26-.39a20.39,20.39,0,0,1-2.8-7,18.89,18.89,0,0,0,1.74,7.54,49.31,49.31,0,0,0,3.71,6.86,98.57,98.57,0,0,0,9.58,12.22c1.72,1.92,3.51,3.79,5.36,5.59l2.79,2.69a20.25,20.25,0,0,1,2.48,2.54A74.31,74.31,0,0,1,501,284c.57,1.11,1.13,2.26,1.63,3.36a18.71,18.71,0,0,1,1.12,3.26,34.09,34.09,0,0,1,.84,7.13,74.06,74.06,0,0,1-1.5,14.81,195.81,195.81,0,0,1-6.65,24.21l.07,0c-.55,1.61-1.08,3.23-1.64,4.83,1-1.77,1.91-3.58,2.82-5.4h0v0l.15-.27h0a118.59,118.59,0,0,0,8.51-22.59,66.53,66.53,0,0,0,2.3-15.56,33.77,33.77,0,0,0-.83-8.08,22.76,22.76,0,0,0-1.3-4c-.54-1.23-1.1-2.39-1.67-3.56a73.57,73.57,0,0,0-8.31-13.42,23,23,0,0,0-3-2.84l-2.83-2.52c-1.86-1.7-3.71-3.43-5.53-5.19a125.58,125.58,0,0,1-10.27-11.13,53.17,53.17,0,0,1-4.06-5.71,105.62,105.62,0,0,0,4.25-12.85,106.88,106.88,0,0,0,2.74-13.5,59.37,59.37,0,0,0,.55-7,24.38,24.38,0,0,0-.71-7.39s-.39-5.63-16.7-29.64c.57-.73,1.15-1.44,1.65-2.22-.6.75-1.27,1.44-1.93,2.13h0a36,36,0,0,0-4.2,3.89c-2,1.57-4,3-6.11,4.4-2.26,1.46-4.54,2.82-6.93,4.07a35.28,35.28,0,0,0-6.91,4.85,33.59,33.59,0,0,0-9.3,14.32,40.12,40.12,0,0,0-1.88,8.46,41.63,41.63,0,0,0-.23,6.43,52.8,52.8,0,0,0-23.77-.59,59.39,59.39,0,0,0-11.73,3.83,68.6,68.6,0,0,0-20,14.06,78.26,78.26,0,0,0-9.71,12,8.72,8.72,0,0,0-.43-4.64,15.38,15.38,0,0,0-6.06-6.92,35.68,35.68,0,0,0-8.06-4,52.62,52.62,0,0,0-8.46-2.25,12.58,12.58,0,0,0-2.81-.57c-.92-.1-1.81-.17-2.7-.22-1.78-.11-3.54-.18-5.3-.23-3.51,0-7,0-10.51.13s-7,.34-10.47.61-7,.64-10.46,1.19a21.57,21.57,0,0,1,3.52.76l-3.66-.7,1.25,4.87c1.59,6.25,2.6,13,4.47,19.84a37.47,37.47,0,0,0,4.3,10.06,34,34,0,0,0,3.27,4.46,25.12,25.12,0,0,0,4.07,3.86c5,4.19,9.95,8.19,15,12.17l7.75,5.92q3.57,2.67,7.24,5.26c.15.69.32,1.38.44,2.07" transform="translate(-11.49 14.5)"/><path class="cls-3" d="M344.43,297.68" transform="translate(-11.49 14.5)"/><path class="cls-3" d="M502.56,225.79a30.32,30.32,0,0,1-8.17-7,51.54,51.54,0,0,1-5.08-7.82c.27-.16.52-.34.79-.49a24,24,0,0,1,5.56-2.15c2-.54,4.15-.82,6.54-1.22a13.88,13.88,0,0,0-14.14-.38,15.07,15.07,0,0,0-5.43,5.05,13,13,0,0,0-2.23,6.81,45.78,45.78,0,0,1,8.13-7.13,25,25,0,0,0,3.11,9.22,24.11,24.11,0,0,0,8.77,8.8A27.27,27.27,0,0,0,512.23,233a26.72,26.72,0,0,0,11.88-1.7,68.86,68.86,0,0,1-11.39-1.58A37.28,37.28,0,0,1,502.56,225.79Z" transform="translate(-11.49 14.5)"/><path class="cls-3" d="M549.94,146.48c4.1-.43,7-4.71,6.51-9.58s-4.24-8.46-8.34-8-7,4.71-6.52,9.57S545.83,146.91,549.94,146.48Z" transform="translate(-11.49 14.5)"/><path class="cls-3" d="M524.64,175.8c-3.44,2-3.66,8-.5,13.43s8.5,8.17,11.94,6.16,3.66-8,.51-13.43S528.08,173.79,524.64,175.8Z" transform="translate(-11.49 14.5)"/><path class="cls-3" d="M552.46,167.32c-4,.24-6.87,5.52-6.47,11.78s3.93,11.11,7.91,10.87,6.87-5.53,6.47-11.79S556.43,167.06,552.46,167.32Z" transform="translate(-11.49 14.5)"/><path class="cls-3" d="M503.54,153.62a55.47,55.47,0,0,1,5.29-1.76c-3.45-2.31-8.46-2-12,.57a13,13,0,0,0-4.12,4.73,11,11,0,0,0-1.29,6,57.54,57.54,0,0,1,7.85-7.18A21.19,21.19,0,0,1,503.54,153.62Z" transform="translate(-11.49 14.5)"/><path class="cls-3" d="M418.51,142.83a.46.46,0,0,0-.07-.07l-.11-.11Z" transform="translate(-11.49 14.5)"/><path class="cls-3" d="M545.46,151.16a33.92,33.92,0,0,0-12.53,2,39.46,39.46,0,0,0-19.11,15.4c-4.52,6.72-6.93,15.25-5,23.64a25.48,25.48,0,0,0,5.94,11.36,29.75,29.75,0,0,0,10.66,7.34,37.3,37.3,0,0,0,25.38,1A38.43,38.43,0,0,0,562.24,206a30.37,30.37,0,0,0-16.78-54.79Zm20.89,12a19.82,19.82,0,0,1,6.36,9.56,20.17,20.17,0,0,1,0,11.47,25.45,25.45,0,0,1-5.57,9.75,40,40,0,0,1-18.31,11.39,35.13,35.13,0,0,1-21.21-.1c-6.72-2.35-12.69-7.18-15.41-14.07a20.68,20.68,0,0,1-1.17-11,23.92,23.92,0,0,1,4.49-10.41c4.61-6.23,11.86-9.78,19-11.5a46.58,46.58,0,0,1,10.87-1.37,40.49,40.49,0,0,1,10.91,1.28A25.49,25.49,0,0,1,566.35,163.13Z" transform="translate(-11.49 14.5)"/><path class="cls-3" d="M446.4,168.19c-1.77-2.3-3.56-4.59-5.38-6.84l-6.2-7.51-6.3-7.4-6.16-7.08L422,139a29.19,29.19,0,0,1-2.73-3.53,29.73,29.73,0,0,1-2.23-4.07,37,37,0,0,1-2.59-9c-.87-4.88-1.19-10-1.9-15.19,3.51,1.1,7.05,2.38,10.48,3.71,2.49,1,4.95,2.07,7.36,3.24s4.81,2.36,7.12,3.7a67.26,67.26,0,0,1,12.87,9.43,38.41,38.41,0,0,1,9.21,13.2,33.24,33.24,0,0,0-7.05-15.15A58.17,58.17,0,0,0,440,113.83a89.63,89.63,0,0,0-14.72-8.3,103.39,103.39,0,0,0-13.46-5c.32.08.59.16,1,.22,3.44.53,9.24.52,12.69,1l10.3,1.42c1.71.22,3.41.46,5.1.73.83.14,1.66.29,2.46.47a15.64,15.64,0,0,1,1.93.51l.3.14.2,0a68.49,68.49,0,0,1,7.87,2.53,43.54,43.54,0,0,1,7.36,3.57,14.6,14.6,0,0,1,5.48,5.47,8.4,8.4,0,0,1,.62,5.67,60.32,60.32,0,0,0-3.62,5.48A122,122,0,0,1,481.19,112a81.81,81.81,0,0,1,20.43-11,60.53,60.53,0,0,1,22.65-3.6,65.89,65.89,0,0,1,11.57,1.47v.23l.7-.07a91.64,91.64,0,0,1,10.74,3.13,53.83,53.83,0,0,0-6.61-3.56l1.55-.17a33.16,33.16,0,0,1-.08-7.34,35.27,35.27,0,0,1,1.51-7.39,29.75,29.75,0,0,1,8-12.77,32.88,32.88,0,0,1,6.3-4.56c2.39-1.31,4.73-2.75,7-4.27.55-.38,1.1-.78,1.64-1.17-1,1.22-2,2.47-2.91,3.8-3.09,4.49-4.85,9.77-6.18,15a61.46,61.46,0,0,0-1.81,16,52.71,52.71,0,0,0,2.73,15.69l.41-.14a54.63,54.63,0,0,1-1-15.51,58.27,58.27,0,0,1,3-15.08c1.61-4.87,4.19-9.26,6.55-13.75s5.22-8.77,8-13.33l-.09-.09s0,0,.05-.06c1,2.42,9.15,21.37,10.27,32.75,0,.46.11,1.54.13,3.13a12.16,12.16,0,0,1-.24,2c-.17,2.17-.54,4.36-.86,6.56-1.45,8.73-3.51,17.46-5.25,26.36-.07-.14-.16-.27-.22-.41a20.6,20.6,0,0,1-2.23-7.21,18.75,18.75,0,0,0,1.13,7.65,48.28,48.28,0,0,0,3.13,7.14,97.65,97.65,0,0,0,8.54,13c1.57,2.06,3.19,4.07,4.89,6l2.56,2.91a20,20,0,0,1,2.27,2.73A75.54,75.54,0,0,1,606,169.42c.47,1.15.93,2.35,1.34,3.48a18.58,18.58,0,0,1,.85,3.34,34.16,34.16,0,0,1,.25,7.17,73.07,73.07,0,0,1-2.71,14.64,196.21,196.21,0,0,1-8.6,23.59l.06,0c-.67,1.57-1.33,3.13-2,4.69,1.13-1.69,2.2-3.42,3.25-5.15h0v0a2.33,2.33,0,0,1,.17-.26h0a119.73,119.73,0,0,0,10.33-21.82,67.14,67.14,0,0,0,3.56-15.32,33.52,33.52,0,0,0-.16-8.12,23,23,0,0,0-1-4.1c-.44-1.27-.91-2.47-1.37-3.68a73.76,73.76,0,0,0-7.18-14.06A23.78,23.78,0,0,0,600,150.7L597.42,148c-1.71-1.85-3.41-3.73-5.09-5.62A128.91,128.91,0,0,1,583,130.4a52.21,52.21,0,0,1-3.57-6,108.13,108.13,0,0,0,5.29-12.45,109.68,109.68,0,0,0,3.83-13.23,60.31,60.31,0,0,0,1.12-6.91,24.42,24.42,0,0,0-.1-7.42s.07-5.64-14.21-30.91c.62-.68,1.26-1.34,1.82-2.08-.65.7-1.38,1.33-2.1,2h0a36.41,36.41,0,0,0-4.5,3.53c-2.08,1.4-4.26,2.68-6.45,3.89-2.37,1.27-4.76,2.43-7.24,3.49a35.1,35.1,0,0,0-7.28,4.26A33.56,33.56,0,0,0,539.16,82a39.72,39.72,0,0,0-2.56,8.28,41,41,0,0,0-.76,6.39,52.7,52.7,0,0,0-23.64-2.54,58.84,58.84,0,0,0-12,2.86,68.37,68.37,0,0,0-21.05,12.37,77.8,77.8,0,0,0-10.65,11.13,8.78,8.78,0,0,0-.06-4.66,15.28,15.28,0,0,0-5.47-7.4,35.62,35.62,0,0,0-7.71-4.61A53,53,0,0,0,447,100.9a13,13,0,0,0-2.76-.8c-.9-.18-1.79-.32-2.67-.44-1.76-.25-3.51-.47-5.26-.66-3.51-.31-7-.6-10.49-.73s-7-.24-10.49-.25-7,.06-10.51.32a21.68,21.68,0,0,1,3.44,1l-3.59-1,.84,5c1.08,6.36,1.53,13.19,2.83,20.13a37.59,37.59,0,0,0,3.46,10.39,36.09,36.09,0,0,0,2.9,4.71,25.18,25.18,0,0,0,3.73,4.18c4.61,4.58,9.25,9,14,13.36l7.24,6.54q3.34,3,6.79,5.83" transform="translate(-11.49 14.5)"/><path class="cls-3" d="M472.83,237" transform="translate(-11.49 14.5)"/><path class="cls-3" d="M507.5,253a124,124,0,0,0,22.77,1.09,106.8,106.8,0,0,0,22.46-3.19,86.46,86.46,0,0,0,21.1-8.1,85.14,85.14,0,0,0,18.34-13.42,69.37,69.37,0,0,1-17.58,14.76,81.87,81.87,0,0,1-21.38,8.7,99.5,99.5,0,0,1-22.9,2.78A92,92,0,0,1,507.5,253Z" transform="translate(-11.49 14.5)"/><path class="cls-4" d="M93.41,495.85c-13.78-.09-27.13,1.8-40.71,3.76,1.89-20.33,5-42,11-61.63,3.66,0,3.37-.18,5.87-4.4,2.12-3.56,4.27-7.14,6.36-10.76,8-13.87,14.59-30.5,16.87-46.46a107,107,0,0,0,.49-23.61c-.36-4.12-.56-5.66-2.81-7.45-2.4-1.92-8.38-3.92-11.62-3.92-.27,0-1.46-4-4.89-1.1-2.58,2.17-3.91,11.6-5.13,15.29-2.86,8.62-5.56,17.28-8.47,25.89a539.44,539.44,0,0,0-22.23,89.42c-.86,5.53-1.64,11.1-2.42,16.59-.44,3.16-1,6.28-1.37,9.45-.68,6.7.71,6.13-3.91,8.81-2.91,1.69-16.83,3.34-18.34,6.85-.87,2,3.55,10.22,4.89,12.22-.42.46-.81,3.22,1.22,4.16,2.51,1.16,8.94-2.81,11.25-3.67,5.23-1.93,10.49-3.14,15.9-4.64a184.3,184.3,0,0,1,26.53-5.14,171.37,171.37,0,0,1,35.59-.73c6.82.57,12,3.81,14.3-2.45.79-2.18-.35-11.75,1.35-13.45C121.9,494.93,98.05,495.89,93.41,495.85Z" transform="translate(-11.49 14.5)"/><path class="cls-4" d="M192.83,425.76c.24,0,0-.25,0,0Z" transform="translate(-11.49 14.5)"/><path class="cls-4" d="M650.16,432.85c0,.24.24-.25,0,0Z" transform="translate(-11.49 14.5)"/><path class="cls-4" d="M650.13,432.72c2-11.72,4.39-23.25,7.12-34.84,2-8.46,3-29.81,9.79-33.51,3.58-1.94,10.61-1.12,14.79-1.47a187.39,187.39,0,0,1,19-.49c5.67.12,13.48,2.5,15.16-3.17.61-2.07-.3-6.93,0-9.54.07-6-.59-5.6-6.85-5.75-6.51-.16-13.33,0-19.94.12-10.12.14-23,4.46-32.39,1a2.19,2.19,0,0,0-3.43-2c-1.88.94-.91,3.26-2.44,4.41-2.38,1.77-8.14,1.79-11.32,2.5-7.77,1.75-16.22,3.48-23.6,6.24-5.61,2.1-4.85,2.88-3.11,8.5.65,2.1,1.12,7.63,2.2,8.68,2.84,2.78,8.95-.66,12.75-1.72,5.81-1.62,12-2.14,17.69-3.9-4.37,19.82-9,39.07-12.73,58.63-1.19,1.22-2,3.46-3.65,6.17-6,9.84-38.58,49.33-36.93,19.08a122.58,122.58,0,0,1,5.38-30.57c.94-2.93,4.47-10.34,3.3-12.35-.92-1.59-9.44-4.53-11.37-4.53-.5-.49-.31-3.16-3.43-2.2-2.89.9-4.43,8.55-5.32,11.38-.56,1.78-1.07,3.57-1.55,5.38-2.83.6-4.78,4.08-7.5,7a172,172,0,0,1-22.43,20c-3.71,2.76-23,19.4-29,14.62-4.46-3.54-2.46-14.63,2.06-25.66l.88-1.36a1.28,1.28,0,0,0-.13-.41c5.57-12.81,14.28-25,19.94-24.54-.07.69.14,8.91.24,8.81,0,.48,11.25-.25,12.48-.25.55,1.42,3.55,1,4.89-.73,2-2.69.59-11.39-.49-14.43-2.91-8.17-11.61-12.8-20.06-11.5-13.74,2.13-27.44,18.2-35,36.19-1.13,1.57-2.18,3.54-3.41,5.39-2.14,3.21-12.27,21.4-16.51,18.59-5.35-3.55-3.24-26.89-3.3-32.62s.8-12.86-1.59-18.25c-12.55-28.34-44.1,19.59-51.24,28.86,3.06-10.1,5.16-20.17,8.56-30.08,1.47-4.28,2.78-5.1-.18-7.83-2-1.88-7.51-3-10.09-3.67-.05-.39-2.33-2.72-4.4-1.71-1.65.8-3,9.2-3.72,11.22-1.7,5.06-3.24,10.1-4.68,15.17l-.89-.05c-6-.53-13.5,1.58-19.57-.27-10.76-3.28-8-10.22-15.18-17.67-22.72-23.42-42.27,17.5-44.08,36.35,0-1.39-2.92-.32-3.12,0a8.79,8.79,0,0,0-.61,1.23c-2.17,1.67-3.51,5.08-5.61,8.07-3.12,4.44-16.38,23-21.15,18.83-3.53-3.05-2.26-22.2-2.45-25.93-.58-11.59-1.67-30.23-19.07-24.33-7.49,2.54-19.29,13.67-21.28,21.64,0-15.5,8.14-33.35,12.23-48.1,1.62-5.86,3.46-11.58,5.51-17.29,1.17-3.26,5-9.87,4.69-13-.39-3.37-7.81-6.45-11.91-6.45-1.47,0-2.09-4.16-5.38.25-2.81,3.75-3.94,11-5.39,15.65-3.06,9.89-6.37,19.58-9.1,29.55-2.65,9.68-5.09,19.27-7.34,28.92-2.56.89-4.43,4.12-7,6.83a172.71,172.71,0,0,1-22.44,20c-3.71,2.76-23,19.4-29,14.62-5.68-4.5-.9-21.24,6.24-34.53a.31.31,0,0,1,.12-.07v-.14c5.28-9.76,11.82-17.6,16.38-17.23-.07.69.14,8.91.25,8.81,0,.48,11.25-.25,12.47-.25.55,1.42,3.56,1,4.89-.73,2-2.69.6-11.39-.49-14.43-2.91-8.17-11.61-12.8-20.05-11.5-13.41,2.08-26.78,17.42-34.42,34.88a125.58,125.58,0,0,1-14.64,18.34c-6.4,6.44-13.79,12.29-22.14,16-11.17,4.95-23.32,0-20.46-14.43,25.78,7.13,44.83-22.36,45.64-45,.66-18.33-17.4-23.94-31-15.17a71,71,0,0,0-12.84,11.25c-15.54,16.67-28.73,48.49-15.84,69.95,14,23.25,41.73,13.12,58.53-.07,2.39-1.87,4.71-3.77,6.95-5.73,1.84,9.82,7.72,17.33,19.2,19.49,14.6,2.76,31.56-12.05,42.56-20.54,3.39-2.62,6.77-5.25,10.07-8-2.86,13.17-6.71,33.25-2,36.12,1,.64,11.68.94,13.45.48,4.62-1.19,6.69-9.95,9.3-15.17,5-10.05,10.35-19.77,16.26-29.34,2.14-3.46,5.2-10.47,8.68-12.47-1.81,16.89,1.28,51.73,26.05,46.32,8-1.74,15.92-8.06,22.75-15.66,4.41,9.43,14.52,15.33,25.06,12.38,16.45-4.59,28.37-29.89,28.37-46,5,0,11.86,2.88,18.09,2.88,1.14,0,3.36,0,5.87-.06-2,9.55-3.64,19.68-4.79,29.32-.88,7.33-2.5,9.71,4.3,10.66,3.39.47,10.5,2,13.33.48.39-.2,3.32-4.92,4.2-6,1.89-2.36,3.16-5.39,4.83-7.94,3.39-5.19,6.7-10.44,10.24-15.5,3.86-5.54,8.25-10.69,12.62-15.8,1.36-1.59,6.68-10.5,8.83-10.5-.55,0,1.45,27.74,2,31.19,1.54,10.38,6.08,20.94,18,22.37,6.54.79,12.29-1.62,17.36-5.66,2.44,8.3,8.22,14.49,18.47,16.42,14.6,2.76,31.56-12.05,42.55-20.54,4.21-3.25,8.4-6.5,12.43-10-.3,17.37,5.33,34.72,26.8,32.33,10.37-1.16,18.69-8,25.72-15.57q-2,16.63-3.07,33.34c-.41,6.2-2.36,9.57,3.67,10.51a50.27,50.27,0,0,0,10,.24c5.81-1,4.38-4,4.71-10.15.3-5.7.64-11.37,1.28-17.12,1.66-14.89,3.81-29.67,6-44.49.14-.89.29-1.78.43-2.67a9.57,9.57,0,0,0,.5-2.85S650.17,432.77,650.13,432.72Zm-508.9-33.11c-.37,8.46-5,19.61-11.27,25.66-3.61,3.46-11.64,1.63-11.48,1.46C122.84,416.77,130.75,404.24,141.23,399.61Zm213,56.05c-1.5.87-5.87,1.5-5.63-1.79.1-1.28,5.29-1.73,6.12-2.91,1.55-2.2-.79-9.49-1.12-13.33-.9-10.47.33-22.69,8.94-30,1.33,2.93,4.87,5.7,5.12,8.85C367.67,432,362.18,444.82,354.24,455.66Z" transform="translate(-11.49 14.5)"/><path class="cls-4" d="M599,392.25c4.9,1.16,3.56,1.26,5.87-.89,1.53-1.4,4-6.81,4.41-8.4,1-3.61,2.18-1.31-1.47-5.26-1.71-1.84-6.87-7.41-8.93-7.83-2.58-.52-3.83.8-5.74,3.55-1,1.47-7.93,14.08-6.61,15.41C590.06,390.56,595,391.3,599,392.25Z" transform="translate(-11.49 14.5)"/><path class="cls-4" d="M779.54,426c.93,1,3.34,3.51,3.66,3.91,1.23,1.51-.63,3.79,3.31,3.31,6.17-.77,13-17.39,14.14-22.09,2.41-10.39-.88-23.2-10.72-28.66-13-7.21-26.27,0-36,9A64.79,64.79,0,0,0,739,411.68c-6.66,1-13.59,1.48-19.89-1.05-8.62-3.46-6.38-9.65-12.23-16.16a20.15,20.15,0,0,0-14.67-6.88c-20.67,0-29.09,25.71-30.66,42.32,0-1.32-2.19-.46-2.88,0-2.36,1.57-1.65,7.67-1.85,10.28-.5,6.7-.61,13.57,1.88,19.93,4,10.25,14.62,16.9,25.68,13.81,16.45-4.59,28.37-29.89,28.37-46,5,0,11.87,2.88,18.1,2.88.94,0,2.71,0,4.78,0,2,13.94,15.05,22.05,27.26,27.95,4.48,2.17,12.41,3.67,8.31,9.3s-12.64,2.69-17.61,2.69c-1.64,1.64-8.32,11.23-7.82,14.42.84,5.41,15.88,6.07,22,4.65,15.72-3.64,31.56-21.68,19.07-37.05-8.06-9.93-32-11.87-32.77-26.29-.44-7.93,17.13-33.83,26.9-28.12,5.17,3,1.25,11.23-1,14.91C776.12,419.74,774,419.79,779.54,426Zm-96.85,28.13c-1.17,1.07-2.13,2.66-4.28,2.33-8-1.22,3-4.66,3.42-5.38,1.27-2-.62-6.4-1-9.43a53.63,53.63,0,0,1,0-14.92c1-6.91,3.18-14.43,8.75-19.12,1.31,2.89,4.77,5.66,4.87,8.85C694.41,427.82,692.12,445.47,682.69,454.13Z" transform="translate(-11.49 14.5)"/></svg>