<?xml version="1.0" encoding="utf-8"?>
<!-- Generator: Adobe Illustrator 23.0.5, SVG Export Plug-In . SVG Version: 6.00 Build 0)  -->
<svg version="1.1" id="Capa_1" xmlns="http://www.w3.org/2000/svg" xmlns:xlink="http://www.w3.org/1999/xlink" x="0px" y="0px"
	 viewBox="0 0 814 582" style="enable-background:new 0 0 814 582;" xml:space="preserve">
<style type="text/css">
	.st0{fill:#FBB03B;}
	.st1{fill:#FBB03B;stroke:#FBB03B;stroke-miterlimit:10;}
	.st2{fill:#00426C;}
	.st3{fill:#830000;}
	.st4{fill:#00426C;stroke:#00426C;stroke-miterlimit:10;}
</style>
<g id="XMLID_3_">
	<g id="XMLID_433_">
		<path id="XMLID_477_" class="st0" d="M200.17,548.92c1.17-1.04,2.55-1.56,4.15-1.56c2.42,0,4.29,1.14,5.61,3.43l-3.43,1.98
			c-0.55-0.97-1.27-1.45-2.18-1.45c-0.53,0-0.98,0.14-1.35,0.41c-0.42,0.31-0.63,0.72-0.63,1.22c0,0.62,0.31,1.23,0.92,1.83
			c0.38,0.37,1.1,0.9,2.16,1.61c0.37,0.26,0.66,0.45,0.85,0.59c0.33,0.23,0.62,0.44,0.86,0.63c0.63,0.48,1.15,0.96,1.56,1.44
			c1.05,1.2,1.57,2.58,1.57,4.13c0,1.57-0.61,2.89-1.82,3.97c-1.17,1.05-2.54,1.57-4.12,1.57c-2.43,0-4.31-1.15-5.64-3.45l3.43-1.98
			c0.56,0.98,1.29,1.46,2.2,1.46c0.52,0,0.97-0.14,1.34-0.41c0.42-0.31,0.63-0.72,0.63-1.23c0-0.61-0.31-1.22-0.93-1.82
			c-0.37-0.37-1.09-0.91-2.15-1.61l-0.42-0.3l-0.44-0.29c-0.32-0.23-0.6-0.44-0.85-0.63c-0.63-0.49-1.15-0.97-1.56-1.44
			c-1.05-1.21-1.57-2.59-1.57-4.13C198.36,551.34,198.97,550.01,200.17,548.92z"/>
		<path id="XMLID_475_" class="st0" d="M228.23,547.79v3.97h-6.58v4.31h5.05v3.97h-5.05v4.31h6.58v3.97h-10.55v-20.52H228.23z"/>
		<path id="XMLID_473_" class="st0" d="M249.84,547.79v20.52H246l-5.73-11.42v11.42h-3.97v-20.52h3.84l5.72,11.43v-11.43H249.84z"/>
		<path id="XMLID_471_" class="st0" d="M262.85,552.25c-0.6,0.61-0.9,1.34-0.9,2.19v7.22c0,0.85,0.3,1.58,0.9,2.19
			c0.61,0.61,1.34,0.92,2.19,0.92c1.2,0,2.15-0.62,2.86-1.85l3.43,1.98c-1.48,2.55-3.58,3.83-6.29,3.83c-1.94,0-3.61-0.69-4.99-2.08
			s-2.08-3.05-2.08-4.99v-7.22c0-1.94,0.69-3.61,2.08-4.99s3.05-2.08,4.99-2.08c2.72,0,4.82,1.28,6.29,3.83l-3.43,1.98
			c-0.71-1.22-1.67-1.83-2.86-1.83C264.19,551.35,263.46,551.65,262.85,552.25z"/>
		<path id="XMLID_469_" class="st0" d="M278.59,547.79h3.98v20.52h-3.98V547.79z"/>
		<path id="XMLID_467_" class="st0" d="M295.37,547.79v16.56h6.58v3.97h-10.55v-20.52H295.37z"/>
		<path id="XMLID_465_" class="st0" d="M312.75,547.79v16.56h6.58v3.97h-10.55v-20.52H312.75z"/>
		<path id="XMLID_462_" class="st0" d="M336.29,547.79l5.31,20.52h-4.09l-0.81-3.12h-5.54l-0.81,3.12h-4.09l5.31-20.52H336.29z
			 M332.2,561.21h3.46l-1.74-6.69L332.2,561.21z"/>
		<path id="XMLID_460_" class="st0" d="M366.4,547.79v20.52h-3.98v-10.33l-4.23,9.71h-1.22l-4.24-9.71v10.33h-3.97v-20.52h3.86
			l4.95,11.37l4.97-11.37H366.4z"/>
		<path id="XMLID_458_" class="st0" d="M385.78,547.79v3.97h-6.58v4.31h5.05v3.97h-5.05v4.31h6.58v3.97h-10.55v-20.52H385.78z"/>
		<path id="XMLID_456_" class="st0" d="M407.39,547.79v20.52h-3.84l-5.73-11.42v11.42h-3.97v-20.52h3.84l5.72,11.43v-11.43H407.39z"
			/>
		<path id="XMLID_454_" class="st0" d="M427.08,547.79v3.97h-4.04v16.56h-3.98v-16.56h-4.04v-3.97H427.08z"/>
		<path id="XMLID_452_" class="st0" d="M444.97,547.79v3.97h-6.58v4.31h5.05v3.97h-5.05v4.31h6.58v3.97h-10.55v-20.52H444.97z"/>
		<path id="XMLID_450_" class="st0" d="M467.11,547.79v16.56h6.58v3.97h-10.55v-20.52H467.11z"/>
		<path id="XMLID_447_" class="st0" d="M490.65,547.79l5.31,20.52h-4.09l-0.81-3.12h-5.54l-0.81,3.12h-4.09l5.31-20.52H490.65z
			 M486.56,561.21h3.46l-1.74-6.69L486.56,561.21z"/>
		<path id="XMLID_445_" class="st0" d="M531.7,547.79v20.52h-3.98v-10.33l-4.23,9.71h-1.22l-4.24-9.71v10.33h-3.97v-20.52h3.86
			l4.95,11.37l4.97-11.37H531.7z"/>
		<path id="XMLID_443_" class="st0" d="M551.09,547.79v3.97h-6.58v4.31h5.05v3.97h-5.05v4.31h6.58v3.97h-10.55v-20.52H551.09z"/>
		<path id="XMLID_441_" class="st0" d="M567.51,562.44c0,1.74-0.62,3.22-1.85,4.45c-1.23,1.23-2.72,1.85-4.46,1.85
			c-1.05,0-2.21-0.31-3.49-0.92l1.98-3.43c0.57,0.25,1.04,0.37,1.44,0.37c0.68,0,1.25-0.21,1.71-0.64c0.46-0.44,0.68-0.99,0.68-1.67
			v-14.65h3.98V562.44z"/>
		<path id="XMLID_437_" class="st0" d="M587.42,549.44c1.39,1.39,2.08,3.05,2.08,4.99v0.71c0,1.95-0.69,3.62-2.08,5.01
			c-1.38,1.38-3.04,2.07-4.99,2.07c-1.94,0-3.61-0.69-4.99-2.07c-1.39-1.39-2.08-3.06-2.08-5.01v-0.71c0-1.94,0.69-3.61,2.08-4.99
			s3.05-2.08,4.99-2.08C584.38,547.36,586.04,548.06,587.42,549.44z M588.9,568.31h-12.93v-3.97h12.93V568.31z M580.23,552.25
			c-0.61,0.61-0.92,1.34-0.92,2.19v0.71c0,0.86,0.3,1.59,0.92,2.2c0.6,0.6,1.33,0.9,2.19,0.9s1.59-0.3,2.19-0.9
			c0.61-0.61,0.92-1.35,0.92-2.2v-0.71c0-0.85-0.31-1.58-0.92-2.19c-0.6-0.6-1.33-0.9-2.19-0.9S580.84,551.65,580.23,552.25z"/>
		<path id="XMLID_434_" class="st0" d="M601.31,560.03v8.28h-3.97v-20.52h7.57c1.68,0,3.12,0.6,4.32,1.81
			c1.19,1.2,1.79,2.64,1.79,4.32c0,1.29-0.37,2.46-1.12,3.52c-0.74,1.05-1.71,1.79-2.93,2.23l3.56,8.65h-4.3l-3.41-8.28H601.31z
			 M601.31,551.76v4.31h3.6c0.58,0,1.09-0.21,1.5-0.63c0.43-0.43,0.64-0.94,0.64-1.52c0-0.59-0.21-1.1-0.64-1.52
			c-0.42-0.43-0.92-0.64-1.5-0.64H601.31z"/>
	</g>
</g>
<g id="XMLID_635_">
	<path id="XMLID_638_" class="st1" d="M586.57,110.65c23.58,30.55,37.4,68.31,37.4,109.46c0,43.32-15.67,83.2-41.96,114.95
		c29.39-32.45,47.06-74.12,47.06-119.56c0-42.23-15.25-81.19-41-112.54"/>
	<path id="XMLID_637_" class="st1" d="M561.04,75.96c-27.43-22.55-61.55-38.42-99.3-44.82l-22.45-2.64c-5-0.33-10.04-0.5-15.13-0.5
		c-67.83,0-132.34,34.81-169.64,81.27l7.29,4.66c36.13-44.32,98.99-79.28,164.07-79.37c0.16,0,0.31,0.02,0.47,0.02
		c23.99-0.25,38.59,3.45,38.59,3.45c34.12,6.21,64.94,20.47,90.16,40.65"/>
	<path id="XMLID_636_" class="st1" d="M228.63,158.71c-5.02,16.24-9.39,39.08-9.39,56.79c0,45.08,17.39,86.44,46.36,118.78
		c-25.91-31.62-38.25-72.43-38.25-115.39c0-16.86,3.85-39.35,8.25-54.75"/>
</g>
<g id="XMLID_2_">
	<g id="XMLID_781_">
		<g id="XMLID_71_">
			<path id="XMLID_8_" class="st2" d="M225.52,1.5c1.93,0,1.93-3,0-3C223.59-1.5,223.59,1.5,225.52,1.5L225.52,1.5z"/>
		</g>
	</g>
	<g id="XMLID_698_">
		<g id="XMLID_153_">
			<path id="XMLID_165_" class="st3" d="M306.76,225.55c-3.23-1.55-6.16-3.66-8.72-6.31c-2.1-2.17-3.93-4.69-5.71-7.38
				c0.25-0.18,0.49-0.39,0.75-0.55c1.64-1.07,3.41-1.93,5.36-2.6c1.95-0.71,4.07-1.16,6.42-1.75c-4.18-2.34-9.84-2.06-14.12,0.78
				c-2.12,1.39-3.84,3.32-5,5.48c-1.13,2.16-1.84,4.54-1.66,6.97c2.51-3.12,4.87-5.73,7.52-7.77c0.68,3.15,1.96,6.2,3.86,8.93
				c2.35,3.4,5.65,6.27,9.46,8.06c3.8,1.82,7.99,2.61,12.07,2.56c4.07-0.05,8.12-0.85,11.7-2.66c-3.98,0.08-7.79-0.11-11.48-0.64
				C313.52,228.1,310,227.1,306.76,225.55z"/>
			<path id="XMLID_164_" class="st3" d="M347.48,142.63c4.05-0.76,6.61-5.27,5.71-10.08c-0.9-4.81-4.92-8.08-8.98-7.33
				c-4.05,0.76-6.61,5.27-5.71,10.08C339.41,140.11,343.42,143.39,347.48,142.63z"/>
			<path id="XMLID_163_" class="st3" d="M324.67,173.92c-3.26,2.28-2.99,8.29,0.6,13.43c3.59,5.14,9.14,7.45,12.41,5.17
				c3.26-2.28,2.99-8.3-0.6-13.43C333.49,173.95,327.94,171.64,324.67,173.92z"/>
			<path id="XMLID_162_" class="st3" d="M351.7,163.19c-3.94,0.57-6.4,6.07-5.49,12.27c0.9,6.2,4.84,10.75,8.78,10.18
				c3.94-0.58,6.39-6.08,5.48-12.28C359.57,167.17,355.64,162.61,351.7,163.19z"/>
			<g id="XMLID_155_">
				<path id="XMLID_161_" class="st3" d="M301.82,153.54c1.5-0.79,3.19-1.4,5.13-2.18c-3.63-2.02-8.59-1.27-11.92,1.55
					c-1.67,1.37-2.93,3.15-3.72,5.06c-0.76,1.92-1.17,3.98-0.79,6.04c2.62-3.13,4.72-5.76,7.23-7.8
					C298.99,155.19,300.31,154.31,301.82,153.54z"/>
				<path id="XMLID_160_" class="st3" d="M216.2,149.77c-0.03-0.02-0.05-0.05-0.08-0.07c-0.04-0.03-0.08-0.07-0.12-0.1L216.2,149.77
					z"/>
				<path id="XMLID_156_" class="st3" d="M343.4,147.66c-4.26,0.19-8.47,1.24-12.33,2.97c-7.75,3.51-13.84,9.81-17.78,16.91
					c-3.96,7.07-5.67,15.76-3.02,23.97c1.3,4.04,3.65,7.87,6.85,10.83c3.19,2.98,7.11,5.11,11.23,6.45
					c8.27,2.69,17.41,2.14,25.38-1.1c3.94-1.69,7.71-3.88,10.88-6.8c3.21-2.85,5.79-6.41,7.54-10.27
					c3.57-7.73,3.78-16.58,0.77-23.98c-2.96-7.41-9.12-13.7-17.03-16.86C351.97,148.23,347.66,147.48,343.4,147.66z M365.2,157.87
					c3.16,2.2,5.7,5.36,7.12,9.01c1.44,3.64,1.71,7.67,0.94,11.43c-0.75,3.77-2.54,7.21-4.75,10.18
					c-4.58,5.84-10.54,10.3-17.32,12.85c-6.71,2.61-14.18,3.39-21.15,1.64c-6.89-1.79-13.23-6.11-16.52-12.76
					c-1.62-3.29-2.4-7.1-2.07-10.88c0.29-3.78,1.61-7.5,3.62-10.74c4.09-6.59,11.02-10.72,17.95-13.01
					c3.5-1.17,7.09-1.94,10.72-2.26c3.63-0.32,7.32-0.3,10.98,0.38C358.4,154.36,362.07,155.64,365.2,157.87z"/>
			</g>
			<path id="XMLID_154_" class="st3" d="M365.2,47.83c0.57-0.73,1.15-1.45,1.65-2.22c-0.6,0.75-1.27,1.44-1.93,2.13l-0.01-0.01
				c-1.51,1.17-2.88,2.5-4.2,3.89c-1.96,1.57-4.02,3.03-6.11,4.41c-2.26,1.46-4.55,2.82-6.93,4.07c-2.46,1.33-4.8,2.94-6.91,4.85
				c-4.25,3.8-7.47,8.83-9.31,14.31c-0.93,2.74-1.55,5.58-1.87,8.46c-0.23,2.16-0.34,4.22-0.23,6.43
				c-3.74-0.95-7.59-1.53-11.49-1.64c-4.11-0.17-8.24,0.26-12.29,1.06c-4.04,0.85-7.97,2.17-11.73,3.83
				c-7.5,3.43-14.24,8.3-19.96,14.06c-3.63,3.66-6.89,7.68-9.71,11.96c0.25-1.51,0.16-3.12-0.44-4.63c-1.16-3-3.55-5.26-6.05-6.93
				c-2.52-1.73-5.27-2.94-8.06-3.96c-2.75-1.01-5.51-1.69-8.45-2.25c-1.19-0.4-1.93-0.45-2.81-0.57c-0.92-0.1-1.81-0.17-2.7-0.22
				c-1.78-0.11-3.54-0.18-5.29-0.22c-3.52-0.02-7.01-0.02-10.51,0.13c-3.49,0.12-6.99,0.34-10.48,0.61
				c-3.49,0.32-6.97,0.64-10.45,1.19c1.48,0.19,2.52,0.47,3.52,0.75l-3.66-0.7l1.25,4.87c1.59,6.25,2.6,13.02,4.47,19.83
				c0.91,3.41,2.35,6.95,4.3,10.07c0.98,1.57,2.06,3.06,3.27,4.46c1.21,1.4,2.41,2.61,4.07,3.86c4.97,4.19,9.95,8.19,15.03,12.17
				l7.74,5.92c2.39,1.78,4.8,3.53,7.25,5.26c0.15,0.68,0.31,1.38,0.44,2.07c0.95,4.95,1.42,10,1.77,15.04
				c0.16,2.52,0.26,5.05,0.35,7.58l0.07,3.78c-0.01,1.16-0.02,2.77,0.22,4.11c0.95,5.4,2.85,10.22,4.8,15.04
				c0.52,1.2,1.03,2.37,1.62,3.58c0.62,1.28,1.37,2.48,2.19,3.6c1.65,2.23,3.55,4.17,5.6,5.88c4.14,3.39,8.63,6.11,13.31,8.38
				c5.18,2.52,10.53,4.59,15.96,6.32l3.22-0.67c-6.04-2.6-11.96-5.39-17.62-8.58c-4.34-2.53-8.59-5.22-12.22-8.49
				c-1.8-1.64-3.51-3.36-4.87-5.27c-0.68-0.95-1.27-1.95-1.75-2.97c-0.51-1.09-1.01-2.27-1.49-3.43c-1.94-4.61-3.81-9.39-4.73-14.05
				c-0.25-1.18-0.27-2.14-0.32-3.53l-0.23-3.87c-0.16-2.58-0.43-5.15-0.76-7.71c-0.64-5.13-1.59-10.24-3.05-15.21
				c-0.77-2.49-1.64-4.95-2.8-7.28c-1.15-2.32-2.59-4.59-4.58-6.23c1.66,1.96,2.66,4.32,3.49,6.69c0.06,0.15,0.09,0.3,0.13,0.45
				c-0.05-0.03-0.1-0.07-0.15-0.1c0.02,0.04,0.02,0.08,0.04,0.12c0.05,0.02,0.09,0.04,0.14,0.05c0.47,1.46,0.85,2.94,1.18,4.43
				c-1.95-2.15-3.92-4.28-5.92-6.37l-6.8-6.98l-6.89-6.86l-6.72-6.55l-0.41-0.38c-0.94-0.86-2.08-2.11-3.01-3.29
				c-0.95-1.22-1.81-2.52-2.56-3.88c-1.53-2.72-2.47-5.61-3.31-8.75c-1.27-4.79-2.01-9.83-3.14-14.99
				c3.59,0.81,7.22,1.79,10.75,2.84c2.56,0.78,5.1,1.66,7.6,2.63c2.51,0.93,4.98,1.96,7.39,3.1c4.8,2.32,9.47,4.95,13.6,8.35
				c4.14,3.35,7.76,7.45,10.26,12.4c-1.3-5.4-4.41-10.38-8.27-14.52c-3.89-4.14-8.49-7.59-13.39-10.41
				c-4.88-2.87-10.05-5.18-15.35-7.07c-4.51-1.65-9.08-2.9-13.83-3.92c0.33,0.05,0.6,0.11,0.97,0.14c3.48,0.24,9.26-0.24,12.73-0.06
				l10.38,0.56c1.72,0.08,3.44,0.18,5.14,0.32c0.84,0.07,1.69,0.15,2.49,0.26c0.75,0.09,1.73,0.26,1.97,0.35l0.3,0.12l0.21,0.03
				c2.64,0.4,5.41,1.12,8.05,1.87c2.65,0.77,5.23,1.74,7.63,2.96c2.35,1.26,4.6,2.79,5.91,5c1.02,1.58,1.32,3.56,1.08,5.6
				c-1.15,1.87-2.22,3.78-3.16,5.76c4.94-6.29,10.42-12.01,16.34-17.11c5.96-5.05,12.42-9.47,19.46-12.61
				c6.99-3.21,14.56-5.06,22.28-5.45c3.87-0.18,7.76,0.01,11.65,0.52c0.01,0.08,0.01,0.15,0.02,0.23l0.69-0.13
				c3.65,0.51,7.32,1.27,10.95,2.24c-2.21-1.16-4.51-2.15-6.88-3l1.53-0.29c-0.49-2.16-0.71-4.84-0.67-7.31
				c0.03-2.52,0.33-5.04,0.9-7.49c1.13-4.92,3.47-9.58,6.94-13.38c1.73-1.91,3.72-3.6,5.9-5.06c2.28-1.5,4.5-3.13,6.63-4.83
				c0.52-0.42,1.03-0.87,1.54-1.3c-0.92,1.3-1.79,2.63-2.59,4.02c-2.72,4.74-4.04,10.14-4.93,15.46
				c-0.88,5.34-1.03,10.77-0.49,16.09c0.65,5.31,1.81,10.56,4,15.41l0.4-0.17c-1.52-4.99-2.21-10.21-2.27-15.38
				c-0.1-5.17,0.48-10.32,1.72-15.28c1.21-4.98,3.42-9.57,5.4-14.23c2.02-4.68,4.48-9.17,6.92-13.95l-0.1-0.08
				c0.02-0.02,0.03-0.05,0.05-0.06c1.24,2.33,10.87,20.55,12.92,31.81c0.07,0.46,0.23,1.53,0.38,3.11c0.03,0.73,0.01,1.42-0.07,2.03
				c0.01,2.18-0.18,4.39-0.32,6.61c-0.73,8.81-2.07,17.69-3.07,26.7c-0.08-0.13-0.17-0.26-0.25-0.39c-1.26-2.16-2.4-4.46-2.8-7
				c-0.05,2.59,0.74,5.15,1.75,7.54c1.02,2.4,2.33,4.66,3.71,6.85c2.84,4.35,6.1,8.39,9.58,12.22c1.72,1.92,3.51,3.79,5.36,5.6
				l2.79,2.69c1.03,0.95,1.74,1.58,2.48,2.54c2.93,3.74,5.35,8.26,7.59,12.74c0.57,1.11,1.12,2.27,1.63,3.36
				c0.47,1.03,0.83,2.13,1.11,3.26c0.57,2.28,0.77,4.69,0.84,7.13c0.12,4.9-0.59,9.88-1.5,14.81c-1.61,8.15-3.97,16.22-6.65,24.22
				c0.02-0.01,0.05-0.02,0.06-0.03c-0.54,1.61-1.07,3.23-1.64,4.83c0.99-1.77,1.92-3.58,2.82-5.4l0,0c0-0.01,0-0.02,0.01-0.02
				c0.04-0.09,0.1-0.19,0.15-0.27c0,0-0.01,0-0.02,0.01c3.55-7.2,6.46-14.75,8.51-22.59c1.32-5.03,2.18-10.22,2.3-15.56
				c0.04-2.67-0.2-5.39-0.82-8.09c-0.31-1.35-0.74-2.69-1.3-4c-0.54-1.23-1.11-2.39-1.67-3.56c-2.4-4.62-4.82-9.19-8.31-13.42
				c-0.86-1.05-2.09-2.09-2.97-2.84l-2.83-2.51c-1.86-1.71-3.71-3.43-5.53-5.19c-3.6-3.54-7.12-7.19-10.27-11.13
				c-1.48-1.82-2.84-3.72-4.06-5.72c1.71-4.18,3.09-8.48,4.25-12.84c1.18-4.42,2.12-8.91,2.73-13.5c0.34-2.29,0.49-4.61,0.55-6.97
				c0.03-2.41,0.06-4.67-0.71-7.39C381.9,77.47,381.5,71.84,365.2,47.83z"/>
		</g>
	</g>
	<g id="XMLID_639_">
		<g id="XMLID_173_">
			<path id="XMLID_186_" class="st3" d="M400.58,361.6c-3.23-1.55-6.16-3.66-8.72-6.31c-2.1-2.17-3.93-4.69-5.71-7.38
				c0.25-0.18,0.49-0.39,0.75-0.55c1.64-1.07,3.41-1.93,5.36-2.6c1.95-0.71,4.07-1.16,6.42-1.75c-4.18-2.34-9.84-2.06-14.12,0.78
				c-2.12,1.39-3.84,3.32-5,5.48c-1.13,2.16-1.84,4.54-1.66,6.97c2.51-3.12,4.87-5.73,7.52-7.77c0.68,3.15,1.96,6.2,3.86,8.93
				c2.35,3.4,5.65,6.27,9.46,8.06c3.8,1.82,7.99,2.61,12.07,2.56c4.07-0.05,8.12-0.86,11.7-2.66c-3.98,0.08-7.79-0.11-11.48-0.64
				C407.34,364.15,403.81,363.15,400.58,361.6z"/>
			<path id="XMLID_185_" class="st3" d="M441.3,278.68c4.05-0.76,6.61-5.27,5.71-10.08c-0.9-4.81-4.92-8.08-8.98-7.33
				c-4.05,0.76-6.61,5.27-5.71,10.08C433.22,276.16,437.24,279.44,441.3,278.68z"/>
			<path id="XMLID_184_" class="st3" d="M418.48,309.97c-3.26,2.28-2.99,8.29,0.6,13.43c3.59,5.14,9.14,7.45,12.41,5.17
				c3.26-2.28,2.99-8.3-0.6-13.43C427.31,310,421.75,307.69,418.48,309.97z"/>
			<path id="XMLID_183_" class="st3" d="M445.52,299.24c-3.94,0.57-6.4,6.07-5.49,12.27c0.9,6.2,4.84,10.75,8.78,10.18
				c3.94-0.58,6.39-6.08,5.48-12.28C453.38,303.22,449.45,298.66,445.52,299.24z"/>
			<g id="XMLID_176_">
				<path id="XMLID_182_" class="st3" d="M395.63,289.59c1.5-0.79,3.19-1.4,5.13-2.18c-3.63-2.02-8.59-1.27-11.92,1.55
					c-1.67,1.37-2.93,3.15-3.72,5.06c-0.76,1.92-1.17,3.98-0.79,6.04c2.62-3.13,4.72-5.76,7.23-7.8
					C392.8,291.24,394.12,290.36,395.63,289.59z"/>
				<path id="XMLID_181_" class="st3" d="M310.01,285.82c-0.03-0.02-0.05-0.05-0.08-0.07c-0.04-0.03-0.08-0.07-0.12-0.1
					L310.01,285.82z"/>
				<path id="XMLID_177_" class="st3" d="M437.21,283.71c-4.26,0.19-8.47,1.24-12.33,2.97c-7.75,3.51-13.84,9.81-17.78,16.91
					c-3.96,7.07-5.67,15.76-3.02,23.97c1.3,4.04,3.65,7.87,6.85,10.83c3.19,2.98,7.11,5.11,11.23,6.45
					c8.27,2.69,17.41,2.14,25.38-1.1c3.94-1.69,7.71-3.88,10.88-6.8c3.21-2.85,5.79-6.41,7.54-10.27
					c3.57-7.73,3.78-16.58,0.77-23.98c-2.96-7.41-9.12-13.7-17.03-16.86C445.78,284.28,441.47,283.53,437.21,283.71z M459.02,293.92
					c3.16,2.2,5.7,5.36,7.12,9.01c1.44,3.64,1.71,7.67,0.94,11.43c-0.75,3.77-2.54,7.21-4.75,10.18
					c-4.58,5.84-10.54,10.3-17.32,12.85c-6.71,2.61-14.18,3.39-21.15,1.64c-6.89-1.79-13.23-6.11-16.52-12.76
					c-1.62-3.29-2.4-7.1-2.07-10.88c0.29-3.78,1.61-7.5,3.62-10.74c4.09-6.59,11.02-10.72,17.95-13.01
					c3.5-1.17,7.09-1.94,10.72-2.26c3.63-0.32,7.32-0.3,10.98,0.38C452.21,290.41,455.88,291.69,459.02,293.92z"/>
			</g>
			<path id="XMLID_175_" class="st3" d="M338.54,303.85c0.06,0.15,0.09,0.3,0.13,0.45c-0.05-0.03-0.1-0.07-0.15-0.1
				c0.02,0.04,0.02,0.08,0.04,0.12c0.05,0.02,0.09,0.04,0.14,0.05c0.47,1.46,0.85,2.94,1.18,4.43c-1.95-2.15-3.92-4.28-5.92-6.37
				l-6.8-6.98l-6.89-6.86l-6.72-6.55l-0.41-0.38c-0.94-0.86-2.08-2.11-3.01-3.29c-0.95-1.22-1.81-2.52-2.56-3.88
				c-1.53-2.72-2.47-5.61-3.31-8.75c-1.27-4.79-2.01-9.83-3.14-14.99c3.59,0.81,7.22,1.79,10.75,2.84c2.56,0.78,5.1,1.66,7.6,2.63
				c2.51,0.93,4.98,1.96,7.39,3.1c4.8,2.32,9.47,4.95,13.6,8.35c4.14,3.35,7.76,7.45,10.26,12.4c-1.3-5.4-4.41-10.38-8.27-14.52
				c-3.89-4.14-8.49-7.59-13.39-10.41c-4.88-2.87-10.05-5.18-15.35-7.07c-4.51-1.65-9.08-2.9-13.83-3.92
				c0.33,0.05,0.6,0.11,0.97,0.14c3.48,0.24,9.26-0.24,12.73-0.06l10.38,0.56c1.72,0.08,3.44,0.18,5.14,0.32
				c0.84,0.07,1.69,0.15,2.49,0.26c0.75,0.09,1.73,0.26,1.97,0.35l0.3,0.12l0.21,0.03c2.64,0.4,5.41,1.12,8.05,1.87
				c2.65,0.77,5.23,1.74,7.63,2.96c2.35,1.26,4.6,2.79,5.91,5c1.02,1.58,1.32,3.56,1.08,5.6c-1.15,1.87-2.22,3.78-3.16,5.76
				c4.94-6.29,10.42-12.01,16.34-17.11c5.96-5.05,12.42-9.47,19.46-12.61c6.99-3.21,14.56-5.06,22.28-5.45
				c3.87-0.18,7.76,0.01,11.65,0.52c0.01,0.08,0.01,0.15,0.02,0.23l0.69-0.13c3.65,0.51,7.32,1.27,10.95,2.24
				c-2.21-1.16-4.51-2.15-6.88-3l1.53-0.29c-0.49-2.16-0.71-4.84-0.67-7.31c0.03-2.52,0.33-5.04,0.9-7.49
				c1.13-4.92,3.47-9.58,6.94-13.38c1.73-1.91,3.72-3.6,5.9-5.06c2.28-1.5,4.5-3.13,6.63-4.83c0.52-0.42,1.03-0.87,1.54-1.3
				c-0.92,1.3-1.79,2.63-2.59,4.02c-2.72,4.74-4.04,10.14-4.93,15.46c-0.88,5.34-1.03,10.77-0.49,16.09
				c0.65,5.31,1.81,10.56,4,15.41l0.4-0.17c-1.52-4.99-2.21-10.21-2.27-15.38c-0.1-5.17,0.48-10.32,1.72-15.28
				c1.21-4.98,3.42-9.57,5.4-14.23c2.02-4.68,4.48-9.17,6.92-13.95l-0.1-0.08c0.02-0.02,0.03-0.05,0.05-0.06
				c1.24,2.33,10.87,20.55,12.92,31.81c0.07,0.46,0.23,1.53,0.38,3.11c0.03,0.73,0.01,1.42-0.07,2.03c0.01,2.18-0.18,4.39-0.32,6.61
				c-0.73,8.81-2.07,17.69-3.07,26.7c-0.08-0.13-0.17-0.26-0.25-0.39c-1.26-2.16-2.4-4.46-2.8-7c-0.05,2.59,0.74,5.15,1.75,7.54
				c1.02,2.4,2.33,4.66,3.71,6.85c2.84,4.35,6.1,8.39,9.58,12.22c1.72,1.92,3.51,3.79,5.36,5.6l2.79,2.69
				c1.03,0.95,1.74,1.58,2.48,2.54c2.93,3.74,5.35,8.26,7.59,12.74c0.57,1.11,1.12,2.27,1.63,3.36c0.47,1.03,0.83,2.13,1.11,3.26
				c0.57,2.28,0.77,4.69,0.84,7.13c0.12,4.9-0.59,9.88-1.5,14.81c-1.61,8.15-3.97,16.22-6.65,24.22c0.02-0.01,0.05-0.02,0.06-0.03
				c-0.54,1.61-1.07,3.23-1.64,4.83c0.99-1.77,1.92-3.58,2.82-5.4l0,0c0-0.01,0-0.02,0.01-0.02c0.04-0.09,0.1-0.19,0.15-0.27
				c0,0-0.01,0-0.02,0.01c3.55-7.2,6.46-14.75,8.51-22.59c1.32-5.03,2.18-10.22,2.3-15.56c0.04-2.67-0.2-5.39-0.82-8.09
				c-0.31-1.35-0.74-2.69-1.3-4c-0.54-1.23-1.11-2.39-1.67-3.56c-2.4-4.62-4.82-9.19-8.31-13.42c-0.86-1.05-2.09-2.09-2.97-2.84
				l-2.83-2.51c-1.86-1.71-3.71-3.43-5.53-5.19c-3.6-3.54-7.12-7.19-10.27-11.13c-1.48-1.82-2.84-3.72-4.06-5.72
				c1.71-4.18,3.09-8.48,4.25-12.84c1.18-4.42,2.12-8.91,2.73-13.5c0.34-2.29,0.49-4.61,0.55-6.97c0.03-2.41,0.06-4.67-0.71-7.39
				c0,0-0.39-5.63-16.7-29.64c0.57-0.73,1.15-1.45,1.65-2.22c-0.6,0.75-1.27,1.44-1.93,2.13l-0.01-0.01
				c-1.51,1.17-2.88,2.5-4.2,3.89c-1.96,1.57-4.02,3.03-6.11,4.41c-2.26,1.46-4.55,2.82-6.93,4.07c-2.46,1.33-4.8,2.94-6.91,4.85
				c-4.25,3.8-7.47,8.83-9.31,14.31c-0.93,2.74-1.55,5.58-1.87,8.46c-0.23,2.16-0.34,4.22-0.23,6.43
				c-3.74-0.95-7.59-1.53-11.49-1.64c-4.11-0.17-8.24,0.26-12.29,1.06c-4.04,0.85-7.97,2.17-11.73,3.83
				c-7.5,3.43-14.24,8.3-19.96,14.06c-3.63,3.66-6.89,7.68-9.71,11.96c0.25-1.51,0.16-3.12-0.44-4.63c-1.16-3-3.55-5.26-6.05-6.93
				c-2.52-1.73-5.27-2.94-8.06-3.96c-2.75-1.01-5.51-1.69-8.45-2.25c-1.19-0.4-1.93-0.45-2.81-0.57c-0.92-0.1-1.81-0.17-2.7-0.22
				c-1.78-0.11-3.54-0.18-5.29-0.22c-3.52-0.02-7.01-0.02-10.51,0.13c-3.49,0.12-6.99,0.34-10.48,0.61
				c-3.49,0.32-6.97,0.64-10.45,1.19c1.48,0.19,2.52,0.47,3.52,0.75l-3.66-0.7l1.25,4.87c1.59,6.25,2.6,13.02,4.47,19.83
				c0.91,3.41,2.35,6.95,4.3,10.07c0.98,1.57,2.06,3.06,3.27,4.46c1.21,1.4,2.41,2.61,4.07,3.86c4.97,4.19,9.95,8.19,15.03,12.17
				l7.74,5.92c2.39,1.78,4.8,3.53,7.25,5.26c0.15,0.68,0.31,1.38,0.44,2.07"/>
			<path id="XMLID_174_" class="st3" d="M342.43,310.68"/>
		</g>
	</g>
	<g id="XMLID_605_">
		<g id="XMLID_194_">
			<path id="XMLID_207_" class="st3" d="M500.56,238.79c-3.09-1.81-5.84-4.15-8.17-7c-1.91-2.34-3.53-5-5.08-7.82
				c0.27-0.16,0.52-0.35,0.79-0.49c1.72-0.93,3.55-1.65,5.56-2.15c2-0.55,4.16-0.82,6.54-1.22c-3.97-2.67-9.64-2.86-14.14-0.38
				c-2.23,1.21-4.1,2.99-5.43,5.05c-1.31,2.06-2.21,4.37-2.23,6.81c2.76-2.9,5.32-5.32,8.13-7.13c0.42,3.19,1.45,6.34,3.11,9.22
				c2.06,3.58,5.12,6.71,8.77,8.81c3.64,2.13,7.75,3.26,11.82,3.54c4.06,0.28,8.16-0.19,11.88-1.7c-3.97-0.24-7.76-0.75-11.39-1.58
				C507.09,241.88,503.66,240.59,500.56,238.79z"/>
			<path id="XMLID_206_" class="st3" d="M547.94,159.48c4.1-0.43,7.02-4.71,6.51-9.58c-0.5-4.86-4.24-8.46-8.35-8.04
				c-4.1,0.43-7.02,4.71-6.52,9.58C540.1,156.31,543.83,159.91,547.94,159.48z"/>
			<path id="XMLID_205_" class="st3" d="M522.64,188.8c-3.44,2.01-3.66,8.02-0.5,13.43c3.16,5.41,8.5,8.18,11.95,6.17
				c3.44-2.01,3.66-8.02,0.5-13.44C531.43,189.55,526.08,186.79,522.64,188.8z"/>
			<path id="XMLID_204_" class="st3" d="M550.46,180.32c-3.98,0.25-6.88,5.53-6.48,11.78c0.39,6.25,3.94,11.11,7.91,10.87
				c3.97-0.26,6.87-5.53,6.47-11.79C557.98,184.93,554.43,180.06,550.46,180.32z"/>
			<g id="XMLID_198_">
				<path id="XMLID_203_" class="st3" d="M501.54,166.62c1.56-0.67,3.29-1.14,5.29-1.75c-3.45-2.31-8.46-1.97-12,0.57
					c-1.77,1.23-3.18,2.9-4.13,4.73c-0.91,1.85-1.49,3.87-1.29,5.96c2.87-2.9,5.17-5.35,7.85-7.18
					C498.58,168.02,499.97,167.25,501.54,166.62z"/>
				<path id="XMLID_202_" class="st3" d="M416.51,155.83c-0.03-0.03-0.04-0.05-0.07-0.08c-0.04-0.04-0.08-0.07-0.11-0.11
					L416.51,155.83z"/>
				<path id="XMLID_199_" class="st3" d="M543.46,164.16c-4.26-0.16-8.55,0.54-12.53,1.95c-8.01,2.87-14.6,8.65-19.11,15.4
					c-4.53,6.72-6.94,15.25-4.98,23.64c0.97,4.13,2.99,8.14,5.94,11.36c2.93,3.23,6.67,5.68,10.67,7.34
					c8.02,3.36,17.18,3.56,25.38,0.98c4.06-1.36,8-3.24,11.4-5.88c3.43-2.57,6.29-5.91,8.35-9.62c4.19-7.42,5.12-16.21,2.73-23.84
					c-2.34-7.62-7.97-14.4-15.59-18.2C551.95,165.43,547.72,164.33,543.46,164.16z M564.35,176.13c2.97,2.45,5.24,5.81,6.36,9.57
					c1.13,3.74,1.08,7.79,0,11.47c-1.06,3.7-3.13,6.98-5.57,9.75c-5.04,5.45-11.35,9.4-18.31,11.39c-6.9,2.05-14.41,2.22-21.21-0.1
					c-6.72-2.35-12.69-7.18-15.41-14.07c-1.34-3.42-1.81-7.27-1.17-11.01c0.6-3.74,2.21-7.34,4.49-10.41
					c4.61-6.23,11.86-9.78,18.96-11.5c3.58-0.88,7.23-1.36,10.87-1.37c3.65-0.03,7.32,0.3,10.92,1.28
					C557.85,172.06,561.41,173.64,564.35,176.13z"/>
			</g>
			<path id="XMLID_197_" class="st3" d="M444.4,181.19c-1.77-2.3-3.56-4.59-5.38-6.84l-6.2-7.51l-6.3-7.4l-6.16-7.08l-0.38-0.41
				c-0.86-0.93-1.9-2.27-2.73-3.53c-0.85-1.29-1.59-2.66-2.23-4.07c-1.3-2.84-2-5.79-2.58-8.99c-0.87-4.88-1.19-9.96-1.9-15.19
				c3.51,1.1,7.04,2.38,10.48,3.71c2.49,0.99,4.95,2.07,7.36,3.24c2.42,1.14,4.81,2.36,7.12,3.7c4.59,2.7,9.04,5.71,12.87,9.43
				c3.86,3.68,7.12,8.06,9.21,13.19c-0.86-5.49-3.54-10.7-7.05-15.15c-3.54-4.44-7.84-8.26-12.49-11.47
				c-4.63-3.26-9.59-5.99-14.72-8.31c-4.36-2.01-8.81-3.63-13.46-5.04c0.32,0.07,0.59,0.16,0.96,0.22
				c3.44,0.53,9.25,0.52,12.69,0.98l10.3,1.41c1.71,0.22,3.41,0.46,5.1,0.74c0.84,0.14,1.67,0.29,2.46,0.47
				c0.74,0.15,1.71,0.4,1.93,0.51l0.29,0.14l0.21,0.04c2.6,0.62,5.3,1.56,7.87,2.52c2.58,0.98,5.07,2.17,7.36,3.58
				c2.24,1.45,4.35,3.16,5.48,5.47c0.89,1.66,1.02,3.66,0.62,5.67c-1.3,1.77-2.52,3.59-3.62,5.48c5.44-5.86,11.37-11.12,17.69-15.72
				c6.35-4.55,13.15-8.42,20.43-10.97c7.23-2.62,14.92-3.85,22.65-3.6c3.87,0.14,7.74,0.65,11.57,1.47c0,0.08,0,0.15,0,0.23
				l0.7-0.07c3.6,0.81,7.19,1.87,10.73,3.13c-2.11-1.34-4.32-2.51-6.61-3.56l1.55-0.17c-0.31-2.19-0.31-4.88-0.07-7.34
				c0.24-2.51,0.74-4.99,1.51-7.4c1.53-4.81,4.24-9.26,8.01-12.76c1.88-1.76,4.01-3.29,6.29-4.56c2.39-1.31,4.74-2.76,7-4.27
				c0.55-0.38,1.1-0.78,1.64-1.17c-1.02,1.22-2,2.47-2.91,3.79c-3.09,4.5-4.85,9.78-6.18,15c-1.31,5.25-1.91,10.65-1.81,16
				c0.21,5.35,0.93,10.68,2.73,15.69l0.41-0.13c-1.11-5.1-1.37-10.36-1-15.51c0.32-5.16,1.32-10.24,2.96-15.09
				c1.61-4.86,4.19-9.26,6.55-13.74c2.39-4.5,5.22-8.77,8.04-13.34l-0.09-0.09c0.02-0.02,0.03-0.04,0.05-0.06
				c1.05,2.42,9.15,21.37,10.27,32.76c0.04,0.46,0.1,1.54,0.12,3.13c-0.03,0.73-0.11,1.42-0.24,2.02c-0.17,2.18-0.54,4.36-0.86,6.57
				c-1.45,8.73-3.51,17.46-5.25,26.36c-0.07-0.14-0.15-0.27-0.22-0.41c-1.08-2.26-2.03-4.64-2.22-7.21
				c-0.26,2.58,0.32,5.19,1.12,7.66c0.82,2.48,1.94,4.83,3.13,7.14c2.48,4.57,5.39,8.87,8.54,12.96c1.56,2.06,3.18,4.07,4.89,6.02
				l2.56,2.91c0.95,1.03,1.61,1.72,2.27,2.73c2.62,3.96,4.66,8.67,6.52,13.32c0.47,1.16,0.94,2.35,1.35,3.48
				c0.38,1.07,0.66,2.19,0.84,3.34c0.38,2.32,0.39,4.74,0.25,7.17c-0.29,4.89-1.4,9.79-2.71,14.64c-2.28,8-5.28,15.84-8.61,23.59
				c0.02-0.01,0.05-0.02,0.07-0.03c-0.67,1.56-1.33,3.13-2.03,4.68c1.13-1.68,2.2-3.41,3.25-5.15l0,0c0-0.01,0-0.02,0.01-0.02
				c0.05-0.09,0.11-0.18,0.17-0.26c-0.01,0-0.01,0-0.02,0c4.13-6.89,7.64-14.17,10.33-21.82c1.73-4.9,3.01-10.01,3.56-15.32
				c0.26-2.66,0.25-5.39-0.16-8.13c-0.2-1.37-0.51-2.74-0.97-4.09c-0.44-1.27-0.91-2.47-1.37-3.68c-2.01-4.8-4.05-9.55-7.18-14.06
				c-0.77-1.12-1.91-2.26-2.73-3.07l-2.61-2.74c-1.72-1.86-3.42-3.73-5.09-5.63c-3.3-3.83-6.5-7.75-9.32-11.94
				c-1.33-1.93-2.52-3.94-3.58-6.03c2.05-4.03,3.78-8.2,5.29-12.45c1.54-4.31,2.85-8.71,3.83-13.23c0.53-2.26,0.86-4.56,1.12-6.9
				c0.22-2.4,0.45-4.65-0.1-7.42c0,0,0.07-5.64-14.21-30.91c0.63-0.68,1.26-1.35,1.83-2.08c-0.66,0.7-1.39,1.33-2.1,1.97l-0.01-0.02
				c-1.6,1.04-3.08,2.26-4.5,3.53c-2.08,1.41-4.26,2.69-6.45,3.89c-2.37,1.27-4.76,2.44-7.24,3.49c-2.56,1.12-5.02,2.53-7.28,4.27
				c-4.55,3.43-8.17,8.19-10.45,13.5c-1.16,2.65-2,5.44-2.56,8.28c-0.4,2.13-0.69,4.18-0.76,6.39c-3.65-1.26-7.44-2.15-11.32-2.58
				c-4.08-0.51-8.23-0.41-12.33,0.05c-4.1,0.51-8.12,1.51-12.01,2.86c-7.76,2.81-14.87,7.11-21.05,12.38
				c-3.92,3.35-7.49,7.09-10.66,11.12c0.38-1.49,0.41-3.09-0.06-4.66c-0.91-3.09-3.11-5.53-5.47-7.4c-2.37-1.93-5.01-3.36-7.71-4.61
				c-2.66-1.23-5.35-2.13-8.24-2.93c-1.15-0.5-1.88-0.6-2.76-0.8c-0.9-0.18-1.79-0.32-2.67-0.44c-1.76-0.25-3.51-0.47-5.26-0.66
				c-3.5-0.31-6.99-0.6-10.49-0.73c-3.49-0.17-6.99-0.23-10.49-0.25c-3.5,0.03-7,0.06-10.51,0.33c1.46,0.31,2.47,0.68,3.44,1.04
				l-3.59-1l0.84,4.96c1.08,6.36,1.52,13.19,2.83,20.13c0.63,3.47,1.77,7.12,3.46,10.39c0.84,1.64,1.81,3.22,2.89,4.71
				c1.1,1.5,2.19,2.8,3.74,4.18c4.61,4.59,9.25,8.98,13.98,13.36l7.23,6.53c2.23,1.97,4.5,3.92,6.79,5.84"/>
			<path id="XMLID_196_" class="st3" d="M470.83,250.01"/>
			<path id="XMLID_195_" class="st3" d="M505.5,266.01c7.56,1.1,15.19,1.4,22.77,1.09c7.58-0.34,15.13-1.26,22.46-3.18
				c7.35-1.75,14.45-4.5,21.1-8.11c6.67-3.57,12.79-8.16,18.34-13.42c-4.95,5.84-10.94,10.83-17.58,14.76
				c-6.64,3.95-13.92,6.76-21.38,8.7c-7.51,1.79-15.21,2.76-22.9,2.77C520.62,268.62,512.92,267.92,505.5,266.01z"/>
		</g>
	</g>
</g>
<g id="XMLID_1_">
	<path id="XMLID_49_" class="st4" d="M91.41,508.85c-13.78-0.09-27.13,1.8-40.72,3.76c1.9-20.34,5.03-42,11-61.63
		c3.66,0,3.37-0.18,5.87-4.4c2.12-3.57,4.27-7.14,6.36-10.76c8.01-13.87,14.59-30.5,16.87-46.47c1.07-7.44,1.16-16.01,0.49-23.6
		c-0.36-4.12-0.57-5.66-2.81-7.46c-2.4-1.92-8.38-3.91-11.62-3.91c-0.27,0-1.47-3.98-4.89-1.1c-2.58,2.16-3.92,11.6-5.14,15.29
		c-2.85,8.62-5.56,17.28-8.47,25.9c-9.82,29.03-17.52,59.16-22.22,89.41c-0.86,5.53-1.65,11.1-2.42,16.59
		c-0.45,3.16-1.05,6.29-1.37,9.46c-0.68,6.69,0.7,6.12-3.91,8.8c-2.91,1.69-16.83,3.34-18.34,6.85c-0.87,2.01,3.56,10.22,4.89,12.23
		c-0.42,0.45-0.81,3.22,1.22,4.16c2.51,1.16,8.93-2.81,11.25-3.67c5.23-1.93,10.48-3.14,15.9-4.65c8.74-2.43,17.65-4.01,26.53-5.14
		c11.73-1.48,23.75-1.72,35.58-0.73c6.83,0.57,12.06,3.82,14.31-2.45c0.78-2.18-0.36-11.75,1.35-13.45
		C119.9,507.93,96.05,508.89,91.41,508.85z"/>
	<path id="XMLID_50_" class="st4" d="M190.83,438.76C191.07,438.76,190.83,438.51,190.83,438.76L190.83,438.76z"/>
	<path id="XMLID_51_" class="st4" d="M648.16,445.85C648.16,446.09,648.4,445.6,648.16,445.85L648.16,445.85z"/>
	<path id="XMLID_54_" class="st4" d="M648.13,445.72c1.94-11.72,4.39-23.25,7.12-34.84c1.99-8.46,2.95-29.81,9.78-33.5
		c3.59-1.94,10.61-1.12,14.8-1.47c6.33-0.52,12.61-0.62,18.96-0.49c5.67,0.11,13.48,2.5,15.16-3.18c0.61-2.06-0.3-6.93,0-9.54
		c0.07-5.96-0.59-5.59-6.85-5.75c-6.51-0.16-13.33,0.03-19.95,0.12c-10.12,0.14-22.96,4.46-32.39,0.98c0.05-1.28-1.14-3.1-3.42-1.96
		c-1.88,0.94-0.91,3.25-2.45,4.4c-2.37,1.77-8.13,1.79-11.31,2.51c-7.77,1.74-16.22,3.47-23.6,6.24c-5.61,2.1-4.86,2.88-3.12,8.5
		c0.65,2.1,1.13,7.63,2.2,8.68c2.84,2.78,8.96-0.66,12.75-1.72c5.81-1.62,11.97-2.14,17.7-3.9c-4.38,19.82-8.95,39.07-12.73,58.63
		c-1.19,1.22-2.01,3.46-3.66,6.17c-5.99,9.84-38.58,49.33-36.93,19.08c0.56-10.25,2.24-20.78,5.38-30.57
		c0.94-2.93,4.47-10.34,3.3-12.35c-0.92-1.58-9.44-4.52-11.37-4.52c-0.49-0.5-0.31-3.16-3.42-2.2c-2.89,0.9-4.43,8.55-5.32,11.37
		c-0.56,1.78-1.07,3.58-1.55,5.39c-2.84,0.6-4.78,4.08-7.5,6.96c-6.83,7.26-14.38,13.99-22.43,19.99
		c-3.71,2.76-22.97,19.39-28.98,14.62c-4.46-3.54-2.47-14.63,2.06-25.66c0.3-0.47,0.59-0.92,0.88-1.36
		c-0.01-0.12-0.06-0.25-0.13-0.41c5.57-12.81,14.28-25,19.94-24.54c-0.07,0.69,0.14,8.91,0.24,8.8c0,0.48,11.25-0.24,12.47-0.24
		c0.55,1.41,3.56,1.02,4.89-0.73c2.04-2.69,0.6-11.39-0.49-14.43c-2.91-8.16-11.61-12.8-20.05-11.49
		c-13.74,2.12-27.45,18.19-34.98,36.19c-1.13,1.57-2.18,3.54-3.42,5.39c-2.14,3.21-12.27,21.4-16.51,18.59
		c-5.35-3.55-3.24-26.89-3.3-32.61c-0.06-5.73,0.8-12.86-1.59-18.26c-12.55-28.34-44.1,19.59-51.24,28.86
		c3.06-10.1,5.16-20.17,8.56-30.08c1.47-4.28,2.78-5.1-0.18-7.83c-2.04-1.88-7.51-3.02-10.09-3.67c-0.06-0.39-2.33-2.72-4.4-1.71
		c-1.65,0.8-3.05,9.2-3.72,11.22c-1.69,5.06-3.23,10.1-4.67,15.17c-0.27-0.01-0.56-0.03-0.9-0.06c-5.98-0.52-13.5,1.58-19.56-0.27
		c-10.76-3.28-7.96-10.22-15.18-17.66c-22.72-23.43-42.27,17.49-44.08,36.35c0-1.39-2.92-0.33-3.12,0
		c-0.24,0.39-0.44,0.81-0.61,1.23c-2.17,1.66-3.5,5.08-5.6,8.07c-3.12,4.44-16.39,22.96-21.15,18.83
		c-3.52-3.05-2.26-22.2-2.45-25.92c-0.58-11.6-1.67-30.24-19.08-24.33c-7.49,2.54-19.28,13.67-21.28,21.64
		c0-15.51,8.14-33.35,12.23-48.1c1.62-5.87,3.46-11.58,5.52-17.3c1.17-3.25,5.05-9.87,4.68-13.02c-0.39-3.37-7.81-6.45-11.91-6.45
		c-1.47,0-2.09-4.17-5.38,0.24c-2.8,3.76-3.94,10.99-5.38,15.65c-3.07,9.89-6.38,19.59-9.1,29.56c-2.65,9.68-5.09,19.26-7.34,28.92
		c-2.56,0.89-4.43,4.12-6.98,6.82c-6.83,7.26-14.38,13.99-22.43,19.99c-3.71,2.76-22.97,19.39-28.98,14.62
		c-5.68-4.51-0.9-21.24,6.25-34.53c0.05-0.05,0.09-0.08,0.12-0.08c0-0.05,0-0.09,0-0.13c5.28-9.76,11.83-17.6,16.39-17.23
		c-0.07,0.69,0.14,8.91,0.24,8.8c0,0.48,11.25-0.24,12.47-0.24c0.55,1.41,3.56,1.02,4.89-0.73c2.04-2.69,0.6-11.39-0.49-14.43
		c-2.91-8.16-11.61-12.8-20.05-11.49c-13.41,2.07-26.78,17.42-34.42,34.87c-4.38,6.48-9.12,12.78-14.64,18.34
		c-6.4,6.44-13.79,12.29-22.15,16c-11.17,4.96-23.32-0.03-20.46-14.43c25.78,7.13,44.83-22.36,45.65-45
		c0.66-18.33-17.4-23.94-31.02-15.16c-4.7,3.03-9.06,7.2-12.84,11.25c-15.54,16.66-28.73,48.49-15.85,69.94
		c13.96,23.25,41.74,13.12,58.53-0.07c2.39-1.88,4.71-3.77,6.95-5.73c1.84,9.82,7.72,17.33,19.2,19.5
		c14.6,2.75,31.56-12.05,42.55-20.54c3.4-2.62,6.77-5.25,10.08-7.99c-2.86,13.17-6.71,33.26-2,36.12
		c1.05,0.64,11.68,0.95,13.45,0.49c4.62-1.2,6.69-9.95,9.3-15.18c5.03-10.05,10.35-19.77,16.26-29.33
		c2.14-3.47,5.2-10.48,8.68-12.47c-1.81,16.89,1.28,51.72,26.05,46.31c7.96-1.74,15.93-8.06,22.75-15.66
		c4.41,9.43,14.52,15.33,25.06,12.39c16.45-4.59,28.37-29.89,28.37-45.98c4.98,0,11.87,2.88,18.1,2.88c1.13,0,3.35,0.04,5.86-0.05
		c-2.02,9.54-3.64,19.68-4.79,29.32c-0.88,7.32-2.5,9.7,4.31,10.65c3.38,0.47,10.5,1.98,13.33,0.49c0.39-0.21,3.32-4.92,4.2-6.02
		c1.89-2.36,3.16-5.39,4.83-7.94c3.39-5.18,6.71-10.44,10.24-15.5c3.86-5.53,8.25-10.69,12.62-15.8c1.36-1.59,6.68-10.49,8.83-10.49
		c-0.55,0,1.45,27.74,1.96,31.18c1.54,10.38,6.08,20.95,17.98,22.38c6.54,0.79,12.28-1.63,17.36-5.66
		c2.43,8.29,8.22,14.49,18.47,16.42c14.6,2.75,31.56-12.05,42.55-20.54c4.21-3.25,8.4-6.5,12.43-9.98
		c-0.31,17.37,5.33,34.72,26.79,32.33c10.38-1.15,18.69-7.97,25.73-15.57c-1.32,11.1-2.33,22.23-3.07,33.35
		c-0.41,6.2-2.37,9.56,3.67,10.5c1.84,0.29,7.81,0.63,10.03,0.24c5.81-1.01,4.38-4.02,4.71-10.15c0.31-5.7,0.64-11.37,1.28-17.12
		c1.65-14.89,3.81-29.67,6.04-44.49c0.13-0.89,0.28-1.78,0.42-2.67c0.32-1.01,0.5-1.97,0.5-2.85
		C648.19,445.82,648.17,445.77,648.13,445.72z M139.23,412.61c-0.36,8.47-4.96,19.61-11.27,25.66c-3.61,3.46-11.64,1.63-11.47,1.47
		C120.84,429.77,128.75,417.24,139.23,412.61z M352.24,468.66c-1.5,0.87-5.87,1.5-5.62-1.8c0.09-1.28,5.28-1.73,6.11-2.91
		c1.55-2.2-0.79-9.48-1.12-13.32c-0.9-10.48,0.33-22.69,8.94-30.02c1.33,2.92,4.87,5.7,5.12,8.85
		C365.67,445.01,360.18,457.82,352.24,468.66z"/>
	<path id="XMLID_62_" class="st4" d="M597.04,405.25c4.9,1.16,3.55,1.25,5.87-0.89c1.52-1.4,3.97-6.81,4.4-8.41
		c0.97-3.61,2.19-1.31-1.47-5.26c-1.71-1.85-6.87-7.41-8.93-7.83c-2.59-0.52-3.83,0.8-5.75,3.55c-1.02,1.47-7.93,14.08-6.6,15.41
		C588.06,403.56,593.01,404.3,597.04,405.25z"/>
	<path id="XMLID_65_" class="st4" d="M777.54,439c0.93,1.04,3.34,3.51,3.67,3.91c1.23,1.51-0.64,3.79,3.3,3.3
		c6.18-0.76,13.05-17.38,14.14-22.08c2.41-10.4-0.88-23.2-10.72-28.66c-12.98-7.21-26.27-0.03-36.01,9.05
		c-5.9,5.49-11.44,12.48-14.9,20.16c-6.65,1.03-13.58,1.47-19.89-1.05c-8.62-3.46-6.38-9.65-12.23-16.16
		c-3.72-4.14-9.1-6.88-14.67-6.88c-20.66,0.03-29.09,25.71-30.65,42.32c0-1.33-2.19-0.46-2.89,0c-2.36,1.57-1.65,7.66-1.85,10.27
		c-0.5,6.71-0.61,13.58,1.88,19.93c4.02,10.26,14.62,16.91,25.68,13.82c16.45-4.59,28.37-29.89,28.37-45.98
		c4.98,0,11.87,2.88,18.1,2.88c0.94,0,2.71,0.04,4.78-0.01c2,13.94,15.06,22.05,27.26,27.95c4.48,2.17,12.42,3.67,8.32,9.29
		c-4.09,5.6-12.64,2.69-17.61,2.69c-1.64,1.64-8.32,11.23-7.83,14.43c0.84,5.4,15.89,6.06,22.01,4.65
		c15.73-3.64,31.56-21.68,19.08-37.05c-8.06-9.93-31.97-11.88-32.77-26.29c-0.44-7.93,17.13-33.83,26.9-28.12
		c5.16,3.02,1.25,11.24-0.98,14.92C774.12,432.74,772,432.79,777.54,439z M680.69,467.13c-1.17,1.07-2.13,2.67-4.28,2.34
		c-7.96-1.22,2.96-4.66,3.42-5.39c1.27-1.99-0.63-6.4-1.04-9.42c-0.69-5.07-0.7-10.11,0-14.92c1.01-6.91,3.18-14.44,8.74-19.12
		c1.31,2.89,4.77,5.65,4.87,8.85C692.41,440.82,690.12,458.47,680.69,467.13z"/>
</g>
</svg>
