<?xml version="1.0" encoding="utf-8"?>
<!-- Generator: Adobe Illustrator 23.0.5, SVG Export Plug-In . SVG Version: 6.00 Build 0)  -->
<svg version="1.1" id="Capa_1" xmlns="http://www.w3.org/2000/svg" xmlns:xlink="http://www.w3.org/1999/xlink" x="0px" y="0px"
	 viewBox="0 0 50 50" style="enable-background:new 0 0 50 50;" xml:space="preserve">
<style type="text/css">
	.st0{fill:#830000;}
	.st1{fill-rule:evenodd;clip-rule:evenodd;fill:#FFFFFF;}
</style>
<g>
	<path class="st0" d="M49.5,25c0,13.5-11,24.5-24.5,24.5S0.5,38.5,0.5,25S11.5,0.5,25,0.5S49.5,11.5,49.5,25z"/>
	<g>
		<path class="st1" d="M39.6,21.3C38,14.5,32.1,9.9,25,9.8c-0.9,0-1.9,0.1-2.8,0.3C12.3,12,7.2,23,12,31.8c0.2,0.3,0.2,0.5,0.1,0.7
			c-0.7,2.3-1.3,4.6-2,6.9c-0.1,0.4-0.1,0.4,0.3,0.3c2.4-0.7,4.8-1.3,7.2-1.9c0.2-0.1,0.4-0.1,0.5,0c3.1,1.6,6.4,2,9.8,1.4
			C36.2,37.7,41.5,29.4,39.6,21.3z M27.1,36.9c-0.7,0.1-1.4,0.2-1.7,0.1c-2.6,0-4.7-0.6-6.7-1.7c-0.3-0.2-0.5-0.2-0.8-0.1
			c-1.3,0.3-2.7,0.7-4,1c-0.3,0.1-0.3,0-0.2-0.3c0.4-1.2,0.7-2.5,1.1-3.8c0.1-0.3,0.1-0.6-0.2-0.9c-2.7-4.4-2.6-9.8,0.4-13.9
			c3.1-4.2,7.5-5.9,12.6-4.9c5.1,1.1,8.3,4.4,9.5,9.4C38.8,28.9,34.1,35.8,27.1,36.9z"/>
		<path class="st1" d="M28.9,31.8c-0.5,0-1,0-1.5-0.2c-3.4-1-6-3.1-8.1-5.9c-0.8-1-1.5-2.2-1.7-3.5c-0.3-1.5,0.2-2.9,1.3-4
			c0.4-0.4,1.5-0.5,2-0.3c0.1,0.1,0.2,0.3,0.3,0.4c0.4,1.1,0.9,2,1.3,3c0.1,0.2,0.1,0.4-0.1,0.6c-0.2,0.5-0.6,0.8-0.9,1.2
			c-0.3,0.2-0.3,0.5-0.1,0.8c1.2,2,2.9,3.5,5.1,4.4c0.3,0.1,0.6,0.1,0.8-0.2c0.4-0.4,0.8-0.9,1.1-1.4c0.2-0.3,0.5-0.3,0.8-0.2
			c0.7,0.3,1.4,0.7,2.1,1c0.2,0.1,0.3,0.2,0.5,0.2c0.7,0.4,0.7,0.4,0.7,1.2c-0.1,1.6-1.3,2.4-2.7,2.7C29.6,31.8,29.3,31.8,28.9,31.8
			z"/>
	</g>
</g>
</svg>
